<svg data-v-423bf9ae="" xmlns="http://www.w3.org/2000/svg" viewBox="0 0 542 90" class="iconLeftSlogan"><!----><!----><!----><g data-v-423bf9ae="" id="540741c9-2cc2-45e6-b877-929335e6f7e7" fill="black" transform="matrix(6.659267311411173,0,0,6.659267311411173,107.66926586001964,-37.15871013593825)"><path d="M0.35 13.60L0.35 13.60L0.55 11.66L0.88 11.71L1.07 13.21L1.07 13.21Q1.30 13.64 1.83 13.89L1.83 13.89L1.83 13.89Q2.36 14.14 2.96 14.14L2.96 14.14L2.96 14.14Q3.64 14.14 4.12 13.74L4.12 13.74L4.12 13.74Q4.60 13.33 4.60 12.61L4.60 12.61L4.60 12.61Q4.60 12.20 4.39 11.83L4.39 11.83L4.39 11.83Q4.17 11.46 3.82 11.18L3.82 11.18L3.82 11.18Q3.48 10.90 3.06 10.63L3.06 10.63L3.06 10.63Q2.64 10.36 2.22 10.07L2.22 10.07L2.22 10.07Q1.80 9.79 1.46 9.48L1.46 9.48L1.46 9.48Q1.11 9.17 0.90 8.75L0.90 8.75L0.90 8.75Q0.68 8.33 0.68 7.84L0.68 7.84L0.68 7.84Q0.68 6.88 1.38 6.29L1.38 6.29L1.38 6.29Q2.07 5.71 2.95 5.71L2.95 5.71L2.95 5.71Q3.54 5.71 4.08 5.90L4.08 5.90L4.08 5.90Q4.62 6.09 4.95 6.46L4.95 6.46L4.72 8.58L4.41 8.53L4.22 6.87L4.22 6.87Q4.04 6.54 3.62 6.32L3.62 6.32L3.62 6.32Q3.21 6.10 2.78 6.10L2.78 6.10L2.78 6.10Q2.18 6.10 1.77 6.48L1.77 6.48L1.77 6.48Q1.35 6.87 1.35 7.52L1.35 7.52L1.35 7.52Q1.35 7.96 1.58 8.35L1.58 8.35L1.58 8.35Q1.80 8.74 2.15 9.03L2.15 9.03L2.15 9.03Q2.50 9.32 2.93 9.61L2.93 9.61L2.93 9.61Q3.35 9.89 3.78 10.17L3.78 10.17L3.78 10.17Q4.20 10.45 4.56 10.75L4.56 10.75L4.56 10.75Q4.91 11.05 5.13 11.45L5.13 11.45L5.13 11.45Q5.35 11.85 5.35 12.29L5.35 12.29L5.35 12.29Q5.35 13.28 4.60 13.93L4.60 13.93L4.60 13.93Q3.85 14.57 2.60 14.57L2.60 14.57L2.60 14.57Q1.89 14.57 1.29 14.30L1.29 14.30L1.29 14.30Q0.69 14.03 0.35 13.60ZM6.90 9.21L6.04 9.21L6.04 9.02L6.04 9.02Q6.37 8.90 6.52 8.82L6.52 8.82L6.52 8.82Q6.67 8.74 6.83 8.56L6.83 8.56L6.83 8.56Q6.99 8.37 7.08 8.07L7.08 8.07L7.08 8.07Q7.17 7.77 7.27 7.23L7.27 7.23L7.56 7.23L7.56 8.86L9.49 8.86L9.44 9.23L7.55 9.23L7.53 12.34L7.53 12.34Q7.53 13.25 7.74 13.57L7.74 13.57L7.74 13.57Q7.95 13.90 8.42 13.90L8.42 13.90L8.42 13.90Q8.65 13.90 8.93 13.77L8.93 13.77L8.93 13.77Q9.21 13.64 9.38 13.51L9.38 13.51L9.55 13.38L9.66 13.61L9.66 13.61Q9.35 14.04 8.91 14.30L8.91 14.30L8.91 14.30Q8.47 14.56 8.03 14.56L8.03 14.56L8.03 14.56Q7.42 14.56 7.15 14.10L7.15 14.10L7.15 14.10Q6.88 13.64 6.88 12.74L6.88 12.74L6.90 9.21ZM11.09 11.03L11.09 11.03L13.74 10.88L13.74 10.88Q13.81 10.75 13.81 10.26L13.81 10.26L13.81 10.26Q13.81 9.65 13.45 9.23L13.45 9.23L13.45 9.23Q13.10 8.80 12.58 8.80L12.58 8.80L12.58 8.80Q11.91 8.80 11.50 9.39L11.50 9.39L11.50 9.39Q11.09 9.98 11.09 11.03ZM10.38 11.59L10.38 11.59L10.38 11.59Q10.38 10.12 11.13 9.27L11.13 9.27L11.13 9.27Q11.87 8.42 12.92 8.42L12.92 8.42L12.92 8.42Q13.70 8.42 14.10 8.90L14.10 8.90L14.10 8.90Q14.51 9.37 14.51 10.42L14.51 10.42L14.51 10.42Q14.51 10.82 14.38 11.31L14.38 11.31L11.08 11.36L11.08 11.36Q11.08 11.94 11.20 12.42L11.20 12.42L11.20 12.42Q11.31 12.89 11.55 13.26L11.55 13.26L11.55 13.26Q11.79 13.62 12.19 13.83L12.19 13.83L12.19 13.83Q12.58 14.03 13.10 14.03L13.10 14.03L13.10 14.03Q14 14.03 14.57 13.46L14.57 13.46L14.69 13.69L14.69 13.69Q14.38 14.10 13.87 14.35L13.87 14.35L13.87 14.35Q13.36 14.59 12.71 14.59L12.71 14.59L12.71 14.59Q11.68 14.59 11.03 13.83L11.03 13.83L11.03 13.83Q10.38 13.07 10.38 11.59ZM16.34 6.24L16.34 6.24L16.34 6.24Q16.34 5.58 16.77 5.58L16.77 5.58L16.77 5.58Q17.21 5.58 17.21 6.24L17.21 6.24L17.21 6.24Q17.21 6.94 16.78 6.94L16.78 6.94L16.78 6.94Q16.34 6.94 16.34 6.24ZM18.14 14.40L15.36 14.40L15.45 14.18L16.47 13.99L16.47 9.01L15.43 8.82L15.45 8.63L17.06 8.50L17.12 8.56L17.12 13.99L18.21 14.17L18.14 14.40ZM21.55 14.40L18.88 14.40L18.93 14.18L19.98 14.01L19.98 9.01L18.93 8.83L18.94 8.63L20.54 8.50L20.58 8.56L20.56 9.50L20.60 9.50L20.60 9.50Q20.90 9.11 21.52 8.75L21.52 8.75L21.52 8.75Q22.15 8.38 22.80 8.38L22.80 8.38L22.80 8.38Q23.46 8.38 23.88 8.87L23.88 8.87L23.88 8.87Q24.31 9.36 24.31 10.40L24.31 10.40L24.31 14.01L25.25 14.14L25.22 14.40L22.65 14.40L22.69 14.18L23.66 14.01L23.66 10.58L23.66 10.58Q23.66 9.73 23.33 9.32L23.33 9.32L23.33 9.32Q23.01 8.92 22.52 8.92L22.52 8.92L22.52 8.92Q21.94 8.92 21.56 9.12L21.56 9.12L21.56 9.12Q21.18 9.31 20.62 9.85L20.62 9.85L20.62 14.01L21.59 14.15L21.55 14.40ZM25.95 13.60L25.95 13.60L26.15 11.66L26.48 11.71L26.67 13.21L26.67 13.21Q26.90 13.64 27.43 13.89L27.43 13.89L27.43 13.89Q27.96 14.14 28.56 14.14L28.56 14.14L28.56 14.14Q29.24 14.14 29.72 13.74L29.72 13.74L29.72 13.74Q30.20 13.33 30.20 12.61L30.20 12.61L30.20 12.61Q30.20 12.20 29.99 11.83L29.99 11.83L29.99 11.83Q29.77 11.46 29.43 11.18L29.43 11.18L29.43 11.18Q29.08 10.90 28.66 10.63L28.66 10.63L28.66 10.63Q28.24 10.36 27.82 10.07L27.82 10.07L27.82 10.07Q27.41 9.79 27.06 9.48L27.06 9.48L27.06 9.48Q26.71 9.17 26.50 8.75L26.50 8.75L26.50 8.75Q26.28 8.33 26.28 7.84L26.28 7.84L26.28 7.84Q26.28 6.88 26.98 6.29L26.98 6.29L26.98 6.29Q27.67 5.71 28.55 5.71L28.55 5.71L28.55 5.71Q29.14 5.71 29.68 5.90L29.68 5.90L29.68 5.90Q30.22 6.09 30.55 6.46L30.55 6.46L30.32 8.58L30.01 8.53L29.83 6.87L29.83 6.87Q29.64 6.54 29.22 6.32L29.22 6.32L29.22 6.32Q28.81 6.10 28.38 6.10L28.38 6.10L28.38 6.10Q27.78 6.10 27.37 6.48L27.37 6.48L27.37 6.48Q26.95 6.87 26.95 7.52L26.95 7.52L26.95 7.52Q26.95 7.96 27.18 8.35L27.18 8.35L27.18 8.35Q27.40 8.74 27.75 9.03L27.75 9.03L27.75 9.03Q28.10 9.32 28.53 9.61L28.53 9.61L28.53 9.61Q28.95 9.89 29.38 10.17L29.38 10.17L29.38 10.17Q29.80 10.45 30.16 10.75L30.16 10.75L30.16 10.75Q30.51 11.05 30.73 11.45L30.73 11.45L30.73 11.45Q30.95 11.85 30.95 12.29L30.95 12.29L30.95 12.29Q30.95 13.28 30.20 13.93L30.20 13.93L30.20 13.93Q29.45 14.57 28.21 14.57L28.21 14.57L28.21 14.57Q27.49 14.57 26.89 14.30L26.89 14.30L26.89 14.30Q26.29 14.03 25.95 13.60ZM32.44 11.03L32.44 11.03L35.08 10.88L35.08 10.88Q35.15 10.75 35.15 10.26L35.15 10.26L35.15 10.26Q35.15 9.65 34.79 9.23L34.79 9.23L34.79 9.23Q34.44 8.80 33.93 8.80L33.93 8.80L33.93 8.80Q33.25 8.80 32.84 9.39L32.84 9.39L32.84 9.39Q32.44 9.98 32.44 11.03ZM31.72 11.59L31.72 11.59L31.72 11.59Q31.72 10.12 32.47 9.27L32.47 9.27L32.47 9.27Q33.22 8.42 34.26 8.42L34.26 8.42L34.26 8.42Q35.04 8.42 35.44 8.90L35.44 8.90L35.44 8.90Q35.85 9.37 35.85 10.42L35.85 10.42L35.85 10.42Q35.85 10.82 35.72 11.31L35.72 11.31L32.42 11.36L32.42 11.36Q32.42 11.94 32.54 12.42L32.54 12.42L32.54 12.42Q32.66 12.89 32.89 13.26L32.89 13.26L32.89 13.26Q33.13 13.62 33.53 13.83L33.53 13.83L33.53 13.83Q33.92 14.03 34.44 14.03L34.44 14.03L34.44 14.03Q35.34 14.03 35.92 13.46L35.92 13.46L36.03 13.69L36.03 13.69Q35.72 14.10 35.21 14.35L35.21 14.35L35.21 14.35Q34.70 14.59 34.05 14.59L34.05 14.59L34.05 14.59Q33.02 14.59 32.37 13.83L32.37 13.83L32.37 13.83Q31.72 13.07 31.72 11.59ZM37.69 6.24L37.69 6.24L37.69 6.24Q37.69 5.58 38.11 5.58L38.11 5.58L38.11 5.58Q38.55 5.58 38.55 6.24L38.55 6.24L38.55 6.24Q38.55 6.94 38.12 6.94L38.12 6.94L38.12 6.94Q37.69 6.94 37.69 6.24ZM39.48 14.40L36.70 14.40L36.79 14.18L37.82 13.99L37.82 9.01L36.77 8.82L36.79 8.63L38.40 8.50L38.46 8.56L38.46 13.99L39.55 14.17L39.48 14.40ZM42.89 14.40L40.22 14.40L40.27 14.18L41.32 14.01L41.32 9.01L40.27 8.83L40.28 8.63L41.88 8.50L41.92 8.56L41.90 9.50L41.95 9.50L41.95 9.50Q42.24 9.11 42.86 8.75L42.86 8.75L42.86 8.75Q43.49 8.38 44.14 8.38L44.14 8.38L44.14 8.38Q44.80 8.38 45.23 8.87L45.23 8.87L45.23 8.87Q45.65 9.36 45.65 10.40L45.65 10.40L45.65 14.01L46.59 14.14L46.57 14.40L43.99 14.40L44.03 14.18L45.00 14.01L45.00 10.58L45.00 10.58Q45.00 9.73 44.68 9.32L44.68 9.32L44.68 9.32Q44.35 8.92 43.87 8.92L43.87 8.92L43.87 8.92Q43.29 8.92 42.91 9.12L42.91 9.12L42.91 9.12Q42.53 9.31 41.96 9.85L41.96 9.85L41.96 14.01L42.93 14.15L42.89 14.40ZM47.29 13.60L47.29 13.60L47.50 11.66L47.82 11.71L48.02 13.21L48.02 13.21Q48.24 13.64 48.77 13.89L48.77 13.89L48.77 13.89Q49.30 14.14 49.90 14.14L49.90 14.14L49.90 14.14Q50.59 14.14 51.06 13.74L51.06 13.74L51.06 13.74Q51.54 13.33 51.54 12.61L51.54 12.61L51.54 12.61Q51.54 12.20 51.33 11.83L51.33 11.83L51.33 11.83Q51.11 11.46 50.77 11.18L50.77 11.18L50.77 11.18Q50.42 10.90 50.00 10.63L50.00 10.63L50.00 10.63Q49.58 10.36 49.16 10.07L49.16 10.07L49.16 10.07Q48.75 9.79 48.40 9.48L48.40 9.48L48.40 9.48Q48.06 9.17 47.84 8.75L47.84 8.75L47.84 8.75Q47.63 8.33 47.63 7.84L47.63 7.84L47.63 7.84Q47.63 6.88 48.32 6.29L48.32 6.29L48.32 6.29Q49.01 5.71 49.90 5.71L49.90 5.71L49.90 5.71Q50.48 5.71 51.02 5.90L51.02 5.90L51.02 5.90Q51.56 6.09 51.89 6.46L51.89 6.46L51.67 8.58L51.35 8.53L51.17 6.87L51.17 6.87Q50.98 6.54 50.57 6.32L50.57 6.32L50.57 6.32Q50.15 6.10 49.72 6.10L49.72 6.10L49.72 6.10Q49.12 6.10 48.71 6.48L48.71 6.48L48.71 6.48Q48.30 6.87 48.30 7.52L48.30 7.52L48.30 7.52Q48.30 7.96 48.52 8.35L48.52 8.35L48.52 8.35Q48.74 8.74 49.09 9.03L49.09 9.03L49.09 9.03Q49.44 9.32 49.87 9.61L49.87 9.61L49.87 9.61Q50.29 9.89 50.72 10.17L50.72 10.17L50.72 10.17Q51.15 10.45 51.50 10.75L51.50 10.75L51.50 10.75Q51.85 11.05 52.07 11.45L52.07 11.45L52.07 11.45Q52.29 11.85 52.29 12.29L52.29 12.29L52.29 12.29Q52.29 13.28 51.54 13.93L51.54 13.93L51.54 13.93Q50.79 14.57 49.55 14.57L49.55 14.57L49.55 14.57Q48.84 14.57 48.23 14.30L48.23 14.30L48.23 14.30Q47.63 14.03 47.29 13.60ZM53.97 6.24L53.97 6.24L53.97 6.24Q53.97 5.58 54.39 5.58L54.39 5.58L54.39 5.58Q54.83 5.58 54.83 6.24L54.83 6.24L54.83 6.24Q54.83 6.94 54.40 6.94L54.40 6.94L54.40 6.94Q53.97 6.94 53.97 6.24ZM55.76 14.40L52.99 14.40L53.07 14.18L54.10 13.99L54.10 9.01L53.05 8.82L53.07 8.63L54.69 8.50L54.74 8.56L54.74 13.99L55.84 14.17L55.76 14.40ZM57.33 9.21L56.47 9.21L56.47 9.02L56.47 9.02Q56.81 8.90 56.96 8.82L56.96 8.82L56.96 8.82Q57.11 8.74 57.27 8.56L57.27 8.56L57.27 8.56Q57.43 8.37 57.52 8.07L57.52 8.07L57.52 8.07Q57.61 7.77 57.70 7.23L57.70 7.23L58.00 7.23L58.00 8.86L59.92 8.86L59.88 9.23L57.98 9.23L57.97 12.34L57.97 12.34Q57.97 13.25 58.18 13.57L58.18 13.57L58.18 13.57Q58.39 13.90 58.86 13.90L58.86 13.90L58.86 13.90Q59.08 13.90 59.37 13.77L59.37 13.77L59.37 13.77Q59.65 13.64 59.81 13.51L59.81 13.51L59.99 13.38L60.09 13.61L60.09 13.61Q59.79 14.04 59.35 14.30L59.35 14.30L59.35 14.30Q58.91 14.56 58.47 14.56L58.47 14.56L58.47 14.56Q57.85 14.56 57.58 14.10L57.58 14.10L57.58 14.10Q57.31 13.64 57.31 12.74L57.31 12.74L57.33 9.21ZM61.53 11.03L61.53 11.03L64.18 10.88L64.18 10.88Q64.24 10.75 64.24 10.26L64.24 10.26L64.24 10.26Q64.24 9.65 63.89 9.23L63.89 9.23L63.89 9.23Q63.53 8.80 63.02 8.80L63.02 8.80L63.02 8.80Q62.34 8.80 61.94 9.39L61.94 9.39L61.94 9.39Q61.53 9.98 61.53 11.03ZM60.81 11.59L60.81 11.59L60.81 11.59Q60.81 10.12 61.56 9.27L61.56 9.27L61.56 9.27Q62.31 8.42 63.36 8.42L63.36 8.42L63.36 8.42Q64.13 8.42 64.54 8.90L64.54 8.90L64.54 8.90Q64.94 9.37 64.94 10.42L64.94 10.42L64.94 10.42Q64.94 10.82 64.82 11.31L64.82 11.31L61.52 11.36L61.52 11.36Q61.52 11.94 61.63 12.42L61.63 12.42L61.63 12.42Q61.75 12.89 61.99 13.26L61.99 13.26L61.99 13.26Q62.23 13.62 62.62 13.83L62.62 13.83L62.62 13.83Q63.01 14.03 63.53 14.03L63.53 14.03L63.53 14.03Q64.44 14.03 65.01 13.46L65.01 13.46L65.13 13.69L65.13 13.69Q64.82 14.10 64.31 14.35L64.31 14.35L64.31 14.35Q63.79 14.59 63.14 14.59L63.14 14.59L63.14 14.59Q62.11 14.59 61.46 13.83L61.46 13.83L61.46 13.83Q60.81 13.07 60.81 11.59Z"></path></g><!----><g data-v-423bf9ae="" id="682324c8-fd38-4380-8914-7848adb16d76" transform="matrix(2.8125,0,0,2.8125,0,0)" stroke="none" fill="black"><path d="M9.382 8.675h13.943v13.943L32 31.293V0H.707zM22.618 23.325H8.675V9.382L0 .707V32h31.293z"></path></g><!----><g data-v-423bf9ae="" id="d5ca98dc-aaf4-4898-a2c7-f133789270a1" fill="black" transform="matrix(0.31911478474359034,0,0,0.31911478474359034,109.83407160420865,59.20540448786159)"><path d="M0.76 3.64L0.52 3.64L0.52 3.08L3.62 3.08L3.61 3.64L3.30 3.64L3.30 3.64Q2.47 3.64 2.47 3.94L2.47 3.94L2.47 3.94Q2.47 4.03 2.51 4.09L2.51 4.09L4.93 10.76L7.24 4.85L7.14 4.57L7.14 4.57Q7.11 4.52 7.09 4.44L7.09 4.44L7.09 4.44Q7.07 4.36 7.05 4.31L7.05 4.31L7.05 4.31Q7.03 4.25 7.01 4.22L7.01 4.22L7.01 4.22Q6.99 4.16 6.89 3.96L6.89 3.96L6.89 3.96Q6.81 3.80 6.69 3.71L6.69 3.71L6.69 3.71Q6.61 3.64 6.44 3.64L6.44 3.64L5.76 3.64L5.76 3.08L9.08 3.08L9.08 3.64L8.35 3.64L8.35 3.64Q8.11 3.64 8.05 3.68L8.05 3.68L8.05 3.68Q7.98 3.72 7.98 3.86L7.98 3.86L7.98 3.86Q7.98 4.00 8.23 4.76L8.23 4.76L10.27 10.72L12.77 4.18L12.77 4.18Q12.82 4.01 12.82 3.94L12.82 3.94L12.82 3.94Q12.82 3.75 12.65 3.69L12.65 3.69L12.65 3.69Q12.50 3.64 12.14 3.64L12.14 3.64L11.77 3.64L11.77 3.08L14.17 3.08L14.18 3.64L14.01 3.64L14.01 3.64Q13.67 3.64 13.57 3.77L13.57 3.77L13.57 3.77Q13.45 3.96 13.20 4.60L13.20 4.60L10.11 12.64L9.87 12.64L7.49 5.64L4.77 12.63L4.55 12.63L1.58 4.52L1.58 4.52Q1.37 3.96 1.20 3.79L1.20 3.79L1.20 3.79Q1.05 3.63 0.76 3.64L0.76 3.64ZM22.50 3.64L21.92 3.64L21.93 3.08L25.44 3.08L25.44 3.64L25.21 3.64L25.21 3.64Q24.66 3.64 24.49 3.73L24.49 3.73L24.49 3.73Q24.36 3.81 24.36 4.28L24.36 4.28L24.36 11.22L24.36 11.22Q24.36 11.68 24.47 11.77L24.47 11.77L24.47 11.77Q24.58 11.87 25.11 11.87L25.11 11.87L25.66 11.87L25.67 12.41L22.09 12.41L22.07 11.87L22.44 11.87L22.44 11.87Q23.00 11.87 23.11 11.77L23.11 11.77L23.11 11.77Q23.22 11.67 23.22 11.25L23.22 11.25L23.22 4.14L23.22 4.14Q23.22 3.77 23.12 3.71L23.12 3.71L23.12 3.71Q23.01 3.64 22.50 3.64L22.50 3.64ZM33.74 3.64L33.35 3.64L33.37 3.08L36.59 3.08L36.59 3.08Q37.72 3.08 38.32 3.21L38.32 3.21L38.32 3.21Q38.96 3.37 39.43 3.75L39.43 3.75L39.43 3.75Q40.43 4.57 40.43 5.71L40.43 5.71L40.43 5.71Q40.43 6.43 39.96 7.04L39.96 7.04L39.96 7.04Q39.47 7.66 38.44 7.92L38.44 7.92L41.13 11.49L41.13 11.49Q41.43 11.87 41.73 11.87L41.73 11.87L42.33 11.87L42.36 12.41L40.33 12.41L37.33 8.10L37.16 8.10L37.16 8.10Q37.12 8.10 37.06 8.11L37.06 8.11L37.06 8.11Q37.01 8.11 37.00 8.11L37.00 8.11L37.00 8.11Q36.11 8.11 35.72 8.03L35.72 8.03L35.72 11.46L35.72 11.46Q35.72 11.76 35.86 11.81L35.86 11.81L35.86 11.81Q35.98 11.87 36.69 11.87L36.69 11.87L37.40 11.87L37.37 12.41L33.65 12.41L33.65 11.87L33.97 11.87L33.97 11.87Q34.43 11.87 34.50 11.81L34.50 11.81L34.50 11.81Q34.58 11.74 34.58 11.46L34.58 11.46L34.58 4.14L34.58 4.14Q34.58 3.82 34.39 3.73L34.39 3.73L34.39 3.73Q34.17 3.64 33.74 3.64L33.74 3.64ZM35.72 4.28L35.72 7.57L35.72 7.57Q35.90 7.70 36.61 7.71L36.61 7.71L36.61 7.71Q37.88 7.71 38.47 7.27L38.47 7.27L38.47 7.27Q39.05 6.84 39.05 5.92L39.05 5.92L39.05 5.92Q39.05 4.92 38.28 4.27L38.28 4.27L38.28 4.27Q37.52 3.64 36.14 3.64L36.14 3.64L36.14 3.64Q35.89 3.64 35.81 3.75L35.81 3.75L35.81 3.75Q35.72 3.84 35.72 4.28L35.72 4.28ZM60.06 8.24L60.06 8.24L60.06 8.24Q60.06 6.92 60.68 5.72L60.68 5.72L60.68 5.72Q61.29 4.52 62.52 3.72L62.52 3.72L62.52 3.72Q63.76 2.92 65.38 2.92L65.38 2.92L65.38 2.92Q66.65 2.92 68.24 3.57L68.24 3.57L68.24 2.86L68.80 2.86L68.89 5.92L68.35 5.93L68.25 4.48L68.25 4.48Q68.17 4.41 67.89 4.24L67.89 4.24L67.89 4.24Q67.64 4.07 66.89 3.83L66.89 3.83L66.89 3.83Q66.17 3.60 65.26 3.60L65.26 3.60L65.26 3.60Q64.29 3.60 63.52 3.93L63.52 3.93L63.52 3.93Q62.75 4.27 62.28 4.83L62.28 4.83L62.28 4.83Q61.82 5.39 61.57 6.08L61.57 6.08L61.57 6.08Q61.32 6.78 61.32 7.57L61.32 7.57L61.32 7.57Q61.32 9.33 62.44 10.69L62.44 10.69L62.44 10.69Q63.56 12.05 65.42 12.05L65.42 12.05L65.42 12.05Q66.12 12.05 66.75 11.85L66.75 11.85L66.75 11.85Q67.38 11.66 67.60 11.48L67.60 11.48L67.84 11.28L67.84 8.78L66.18 8.78L66.17 8.23L70.03 8.23L70.04 8.78L68.97 8.78L68.97 11.64L68.19 11.98L68.19 11.98Q67.49 12.30 67.27 12.39L67.27 12.39L67.27 12.39Q67.01 12.48 66.37 12.61L66.37 12.61L66.37 12.61Q65.76 12.74 65.15 12.74L65.15 12.74L65.15 12.74Q63.85 12.74 62.88 12.37L62.88 12.37L62.88 12.37Q61.89 12.00 61.28 11.36L61.28 11.36L61.28 11.36Q60.69 10.76 60.37 9.94L60.37 9.94L60.37 9.94Q60.06 9.15 60.06 8.24ZM77.79 3.64L77.78 3.08L84.99 3.08L84.99 3.08Q85.00 4.14 85.06 5.28L85.06 5.28L84.51 5.30L84.51 5.30Q84.50 4.66 84.44 4.25L84.44 4.25L84.44 4.25Q84.40 3.89 84.35 3.80L84.35 3.80L84.35 3.80Q84.29 3.71 84.18 3.69L84.18 3.69L84.18 3.69Q84.08 3.68 83.49 3.68L83.49 3.68L81.12 3.68L81.12 3.68Q80.57 3.68 80.42 3.77L80.42 3.77L80.42 3.77Q80.30 3.86 80.30 4.33L80.30 4.33L80.30 6.28L80.30 6.28Q80.30 6.69 80.36 6.76L80.36 6.76L80.36 6.76Q80.42 6.84 80.77 6.84L80.77 6.84L82.88 6.84L82.88 6.84Q83.24 6.84 83.32 6.73L83.32 6.73L83.32 6.73Q83.41 6.63 83.41 6.14L83.41 6.14L83.41 5.61L83.92 5.63L83.92 8.97L83.41 8.97L83.41 8.24L83.41 8.24Q83.41 7.66 83.34 7.57L83.34 7.57L83.34 7.57Q83.25 7.46 82.91 7.46L82.91 7.46L80.81 7.46L80.81 7.46Q80.47 7.46 80.39 7.54L80.39 7.54L80.39 7.54Q80.30 7.63 80.30 7.89L80.30 7.89L80.30 11.20L80.30 11.20Q80.30 11.57 80.39 11.67L80.39 11.67L80.39 11.67Q80.47 11.77 80.75 11.77L80.75 11.77L80.75 11.77Q83.67 11.75 84.19 11.69L84.19 11.69L84.19 11.69Q84.71 11.63 84.79 11.38L84.79 11.38L84.80 11.36L84.81 11.35L85.03 10.17L85.51 10.25L85.16 12.41L78.06 12.41L78.06 11.87L78.43 11.87L78.43 11.87Q78.99 11.87 79.07 11.80L79.07 11.80L79.07 11.80Q79.17 11.72 79.17 11.33L79.17 11.33L79.17 4.24L79.17 4.24Q79.17 3.82 79.02 3.73L79.02 3.73L79.02 3.73Q78.85 3.64 78.19 3.64L78.19 3.64L77.79 3.64ZM93.36 10.04L93.36 10.04L93.85 9.98L94.04 10.85L94.04 10.85Q94.14 11.33 94.21 11.41L94.21 11.41L94.21 11.41Q94.28 11.49 94.69 11.64L94.69 11.64L94.69 11.64Q95.53 11.95 96.43 11.95L96.43 11.95L96.43 11.95Q97.21 11.95 97.75 11.49L97.75 11.49L97.75 11.49Q98.29 11.04 98.29 10.26L98.29 10.26L98.29 10.26Q98.29 9.65 97.83 9.21L97.83 9.21L97.83 9.21Q97.35 8.76 96.50 8.30L96.50 8.30L95.92 7.98L95.92 7.98Q95.18 7.55 94.94 7.36L94.94 7.36L94.94 7.36Q94.58 7.08 94.27 6.59L94.27 6.59L94.27 6.59Q93.96 6.10 93.96 5.46L93.96 5.46L93.96 5.46Q93.96 4.39 94.80 3.68L94.80 3.68L94.80 3.68Q95.64 2.97 96.75 2.97L96.75 2.97L96.75 2.97Q97.03 2.97 97.38 3.04L97.38 3.04L97.38 3.04Q97.58 3.08 97.91 3.17L97.91 3.17L98.15 3.25L98.15 3.25Q98.25 3.25 98.29 3.16L98.29 3.16L98.29 3.16Q98.34 3.05 98.34 2.98L98.34 2.98L98.36 2.88L98.83 2.85L99.05 5.41L98.54 5.43L98.42 4.18L98.42 4.18Q97.67 3.62 96.51 3.62L96.51 3.62L96.51 3.62Q95.87 3.62 95.36 4.05L95.36 4.05L95.36 4.05Q94.88 4.47 94.88 5.12L94.88 5.12L94.88 5.12Q94.88 5.72 95.33 6.17L95.33 6.17L95.33 6.17Q95.76 6.60 96.63 7.08L96.63 7.08L97.41 7.50L97.41 7.50Q98.36 8.03 98.89 8.59L98.89 8.59L98.89 8.59Q99.42 9.15 99.42 9.92L99.42 9.92L99.42 9.92Q99.42 10.99 98.57 11.76L98.57 11.76L98.57 11.76Q97.70 12.54 96.24 12.54L96.24 12.54L96.24 12.54Q95.68 12.54 95.18 12.41L95.18 12.41L95.18 12.41Q94.68 12.29 94.62 12.29L94.62 12.29L94.62 12.29Q94.37 12.29 94.37 12.58L94.37 12.58L94.38 12.76L93.91 12.80L93.91 12.80Q93.84 12.41 93.36 10.04ZM107.88 5.35L107.39 5.33L107.39 5.33Q107.51 4.17 107.59 3.08L107.59 3.08L115.67 3.08L115.67 3.08Q115.59 4.13 115.56 4.53L115.56 4.53L115.56 4.53Q115.52 5.26 115.50 5.32L115.50 5.32L115.00 5.30L115.00 5.30Q115.08 4.34 115.08 4.16L115.08 4.16L115.08 4.16Q115.08 3.88 114.94 3.79L114.94 3.79L114.94 3.79Q114.77 3.69 114.37 3.69L114.37 3.69L112.76 3.69L112.76 3.69Q112.25 3.69 112.13 3.79L112.13 3.79L112.13 3.79Q112.03 3.87 112.03 4.36L112.03 4.36L112.03 11.22L112.03 11.22Q112.03 11.66 112.17 11.76L112.17 11.76L112.17 11.76Q112.33 11.87 112.84 11.87L112.84 11.87L113.40 11.87L113.42 12.41L109.72 12.40L109.72 11.87L109.94 11.87L109.94 11.87Q110.61 11.87 110.76 11.79L110.76 11.79L110.76 11.79Q110.90 11.70 110.90 11.28L110.90 11.28L110.90 4.48L110.90 4.48Q110.90 3.92 110.80 3.80L110.80 3.80L110.80 3.80Q110.70 3.69 110.28 3.69L110.28 3.69L108.81 3.69L108.81 3.69Q108.62 3.69 108.55 3.71L108.55 3.71L108.55 3.71Q108.49 3.72 108.38 3.72L108.38 3.72L108.38 3.72Q108.35 3.72 108.23 3.79L108.23 3.79L108.23 3.79Q108.15 3.84 108.12 3.86L108.12 3.86L108.12 3.86Q108.10 3.88 108.06 3.99L108.06 3.99L108.06 3.99Q108.03 4.05 108.00 4.14L108.00 4.14L108.00 4.14Q107.97 4.21 107.95 4.36L107.95 4.36L107.95 4.36Q107.93 4.59 107.93 4.61L107.93 4.61L107.93 4.61Q107.93 4.80 107.91 4.95L107.91 4.95L107.91 4.95Q107.91 5.02 107.91 5.15L107.91 5.15L107.91 5.15Q107.90 5.29 107.88 5.35L107.88 5.35ZM123.42 12.41L123.41 11.87L123.58 11.87L123.58 11.87Q123.97 11.87 124.10 11.73L124.10 11.73L124.10 11.73Q124.22 11.57 124.56 10.83L124.56 10.83L125.47 8.82L126.04 7.53L126.04 7.53Q126.31 6.97 126.35 6.86L126.35 6.86L126.35 6.86Q126.42 6.70 126.47 6.60L126.47 6.60L126.47 6.60Q126.52 6.51 126.53 6.45L126.53 6.45L126.63 6.21L128.06 2.74L128.35 2.74L128.35 2.74Q129.21 4.98 131.39 10.25L131.39 10.25L131.39 10.25Q131.84 11.34 132.04 11.64L132.04 11.64L132.04 11.64Q132.17 11.87 132.61 11.87L132.61 11.87L132.82 11.87L132.81 12.41L129.62 12.41L129.63 11.87L130.05 11.87L130.05 11.87Q130.66 11.87 130.66 11.70L130.66 11.70L130.66 11.70Q130.66 11.63 130.53 11.27L130.53 11.27L129.49 8.72L126.24 8.72L125.13 11.18L125.13 11.18Q125.00 11.50 125.00 11.63L125.00 11.63L125.00 11.63Q125.00 11.79 125.09 11.83L125.09 11.83L125.09 11.83Q125.19 11.87 125.57 11.87L125.57 11.87L126.14 11.87L126.14 12.41L123.42 12.41ZM127.92 4.79L126.51 8.10L129.25 8.10L127.92 4.79ZM141.05 3.64L140.55 3.64L140.57 3.08L144.16 3.08L144.16 3.64L143.52 3.64L143.52 3.64Q143.14 3.64 143.03 3.72L143.03 3.72L143.03 3.72Q142.92 3.80 142.92 4.16L142.92 4.16L142.92 11.22L142.92 11.22Q142.92 11.57 143.00 11.67L143.00 11.67L143.00 11.67Q143.09 11.77 143.38 11.77L143.38 11.77L143.38 11.77Q146.25 11.74 146.91 11.63L146.91 11.63L146.91 11.63Q147.12 11.61 147.21 11.39L147.21 11.39L147.21 11.39Q147.29 11.17 147.49 10.05L147.49 10.05L147.98 10.08L147.51 12.41L140.75 12.41L140.74 11.87L141.13 11.87L141.13 11.87Q141.63 11.87 141.70 11.80L141.70 11.80L141.70 11.80Q141.78 11.72 141.79 11.33L141.79 11.33L141.79 4.09L141.79 4.09Q141.79 3.80 141.63 3.72L141.63 3.72L141.63 3.72Q141.48 3.64 141.05 3.64L141.05 3.64ZM155.99 5.35L155.49 5.33L155.49 5.33Q155.61 4.17 155.70 3.08L155.70 3.08L163.78 3.08L163.78 3.08Q163.69 4.13 163.67 4.53L163.67 4.53L163.67 4.53Q163.63 5.26 163.60 5.32L163.60 5.32L163.11 5.30L163.11 5.30Q163.19 4.34 163.19 4.16L163.19 4.16L163.19 4.16Q163.19 3.88 163.04 3.79L163.04 3.79L163.04 3.79Q162.87 3.69 162.47 3.69L162.47 3.69L160.86 3.69L160.86 3.69Q160.36 3.69 160.23 3.79L160.23 3.79L160.23 3.79Q160.14 3.87 160.13 4.36L160.13 4.36L160.13 11.22L160.13 11.22Q160.13 11.66 160.28 11.76L160.28 11.76L160.28 11.76Q160.43 11.87 160.95 11.87L160.95 11.87L161.51 11.87L161.52 12.41L157.83 12.40L157.83 11.87L158.05 11.87L158.05 11.87Q158.72 11.87 158.86 11.79L158.86 11.79L158.86 11.79Q159.00 11.70 159.00 11.28L159.00 11.28L159.00 4.48L159.00 4.48Q159.00 3.92 158.90 3.80L158.90 3.80L158.90 3.80Q158.81 3.69 158.38 3.69L158.38 3.69L156.91 3.69L156.91 3.69Q156.73 3.69 156.66 3.71L156.66 3.71L156.66 3.71Q156.59 3.72 156.48 3.72L156.48 3.72L156.48 3.72Q156.45 3.72 156.34 3.79L156.34 3.79L156.34 3.79Q156.26 3.84 156.23 3.86L156.23 3.86L156.23 3.86Q156.20 3.88 156.16 3.99L156.16 3.99L156.16 3.99Q156.13 4.05 156.11 4.14L156.11 4.14L156.11 4.14Q156.08 4.21 156.06 4.36L156.06 4.36L156.06 4.36Q156.03 4.59 156.03 4.61L156.03 4.61L156.03 4.61Q156.03 4.80 156.02 4.95L156.02 4.95L156.02 4.95Q156.02 5.02 156.01 5.15L156.01 5.15L156.01 5.15Q156.00 5.29 155.99 5.35L155.99 5.35ZM171.53 3.64L171.51 3.08L178.73 3.08L178.73 3.08Q178.74 4.14 178.79 5.28L178.79 5.28L178.25 5.30L178.25 5.30Q178.23 4.66 178.18 4.25L178.18 4.25L178.18 4.25Q178.14 3.89 178.08 3.80L178.08 3.80L178.08 3.80Q178.03 3.71 177.91 3.69L177.91 3.69L177.91 3.69Q177.82 3.68 177.23 3.68L177.23 3.68L174.85 3.68L174.85 3.68Q174.30 3.68 174.16 3.77L174.16 3.77L174.16 3.77Q174.04 3.86 174.04 4.33L174.04 4.33L174.04 6.28L174.04 6.28Q174.04 6.69 174.09 6.76L174.09 6.76L174.09 6.76Q174.16 6.84 174.50 6.84L174.50 6.84L176.61 6.84L176.61 6.84Q176.98 6.84 177.06 6.73L177.06 6.73L177.06 6.73Q177.14 6.63 177.15 6.14L177.15 6.14L177.15 5.61L177.66 5.63L177.66 8.97L177.15 8.97L177.15 8.24L177.15 8.24Q177.15 7.66 177.07 7.57L177.07 7.57L177.07 7.57Q176.99 7.46 176.64 7.46L176.64 7.46L174.54 7.46L174.54 7.46Q174.21 7.46 174.12 7.54L174.12 7.54L174.12 7.54Q174.04 7.63 174.04 7.89L174.04 7.89L174.04 11.20L174.04 11.20Q174.04 11.57 174.12 11.67L174.12 11.67L174.12 11.67Q174.21 11.77 174.48 11.77L174.48 11.77L174.48 11.77Q177.40 11.75 177.93 11.69L177.93 11.69L177.93 11.69Q178.45 11.63 178.53 11.38L178.53 11.38L178.53 11.36L178.54 11.35L178.77 10.17L179.25 10.25L178.90 12.41L171.79 12.41L171.79 11.87L172.16 11.87L172.16 11.87Q172.72 11.87 172.81 11.80L172.81 11.80L172.81 11.80Q172.90 11.72 172.90 11.33L172.90 11.33L172.90 4.24L172.90 4.24Q172.90 3.82 172.75 3.73L172.75 3.73L172.75 3.73Q172.58 3.64 171.92 3.64L171.92 3.64L171.53 3.64ZM187.13 3.64L187.12 3.08L189.29 3.08L195.03 10.48L195.03 4.14L195.03 4.14Q195.03 3.81 194.88 3.72L194.88 3.72L194.88 3.72Q194.72 3.64 194.26 3.64L194.26 3.64L193.77 3.64L193.80 3.08L196.78 3.08L196.78 3.64L196.46 3.64L196.46 3.64Q195.99 3.64 195.84 3.75L195.84 3.75L195.84 3.75Q195.69 3.86 195.69 4.25L195.69 4.25L195.69 12.32L195.69 12.47L195.69 12.47Q195.69 12.52 195.68 12.57L195.68 12.57L195.68 12.57Q195.67 12.61 195.63 12.64L195.63 12.64L195.63 12.64Q195.62 12.65 195.56 12.65L195.56 12.65L195.37 12.65L195.31 12.65L195.28 12.65L195.25 12.64L195.25 12.64Q195.23 12.64 195.21 12.63L195.21 12.63L195.21 12.63Q195.20 12.61 195.20 12.60L195.20 12.60L195.20 12.60Q195.20 12.58 195.19 12.57L195.19 12.57L195.19 12.57Q195.16 12.54 195.13 12.50L195.13 12.50L195.13 12.50Q195.12 12.48 195.10 12.45L195.10 12.45L195.10 12.45Q195.08 12.41 195.06 12.40L195.06 12.40L188.96 4.56L189.03 11.22L189.03 11.22Q189.03 11.67 189.19 11.77L189.19 11.77L189.19 11.77Q189.35 11.87 190.06 11.87L190.06 11.87L190.30 11.87L190.30 12.41L187.36 12.41L187.36 11.87L187.78 11.87L187.78 11.87Q188.16 11.87 188.27 11.76L188.27 11.76L188.27 11.76Q188.36 11.66 188.37 11.25L188.37 11.25L188.37 3.80L188.23 3.64L187.13 3.64ZM214.37 5.35L213.87 5.33L213.87 5.33Q213.99 4.17 214.07 3.08L214.07 3.08L222.15 3.08L222.15 3.08Q222.07 4.13 222.04 4.53L222.04 4.53L222.04 4.53Q222.00 5.26 221.98 5.32L221.98 5.32L221.48 5.30L221.48 5.30Q221.57 4.34 221.57 4.16L221.57 4.16L221.57 4.16Q221.57 3.88 221.42 3.79L221.42 3.79L221.42 3.79Q221.25 3.69 220.85 3.69L220.85 3.69L219.24 3.69L219.24 3.69Q218.74 3.69 218.61 3.79L218.61 3.79L218.61 3.79Q218.52 3.87 218.51 4.36L218.51 4.36L218.51 11.22L218.51 11.22Q218.51 11.66 218.65 11.76L218.65 11.76L218.65 11.76Q218.81 11.87 219.32 11.87L219.32 11.87L219.88 11.87L219.90 12.41L216.21 12.40L216.21 11.87L216.43 11.87L216.43 11.87Q217.10 11.87 217.24 11.79L217.24 11.79L217.24 11.79Q217.38 11.70 217.38 11.28L217.38 11.28L217.38 4.48L217.38 4.48Q217.38 3.92 217.28 3.80L217.28 3.80L217.28 3.80Q217.18 3.69 216.76 3.69L216.76 3.69L215.29 3.69L215.29 3.69Q215.11 3.69 215.04 3.71L215.04 3.71L215.04 3.71Q214.97 3.72 214.86 3.72L214.86 3.72L214.86 3.72Q214.83 3.72 214.72 3.79L214.72 3.79L214.72 3.79Q214.63 3.84 214.61 3.86L214.61 3.86L214.61 3.86Q214.58 3.88 214.54 3.99L214.54 3.99L214.54 3.99Q214.51 4.05 214.48 4.14L214.48 4.14L214.48 4.14Q214.46 4.21 214.44 4.36L214.44 4.36L214.44 4.36Q214.41 4.59 214.41 4.61L214.41 4.61L214.41 4.61Q214.41 4.80 214.40 4.95L214.40 4.95L214.40 4.95Q214.40 5.02 214.39 5.15L214.39 5.15L214.39 5.15Q214.38 5.29 214.37 5.35L214.37 5.35ZM229.91 3.64L229.89 3.08L237.10 3.08L237.10 3.08Q237.12 4.14 237.17 5.28L237.17 5.28L236.63 5.30L236.63 5.30Q236.61 4.66 236.56 4.25L236.56 4.25L236.56 4.25Q236.52 3.89 236.46 3.80L236.46 3.80L236.46 3.80Q236.41 3.71 236.29 3.69L236.29 3.69L236.29 3.69Q236.20 3.68 235.61 3.68L235.61 3.68L233.23 3.68L233.23 3.68Q232.68 3.68 232.54 3.77L232.54 3.77L232.54 3.77Q232.42 3.86 232.42 4.33L232.42 4.33L232.42 6.28L232.42 6.28Q232.42 6.69 232.47 6.76L232.47 6.76L232.47 6.76Q232.54 6.84 232.88 6.84L232.88 6.84L234.99 6.84L234.99 6.84Q235.35 6.84 235.44 6.73L235.44 6.73L235.44 6.73Q235.52 6.63 235.53 6.14L235.53 6.14L235.53 5.61L236.04 5.63L236.04 8.97L235.53 8.97L235.53 8.24L235.53 8.24Q235.53 7.66 235.45 7.57L235.45 7.57L235.45 7.57Q235.37 7.46 235.02 7.46L235.02 7.46L232.92 7.46L232.92 7.46Q232.59 7.46 232.50 7.54L232.50 7.54L232.50 7.54Q232.42 7.63 232.42 7.89L232.42 7.89L232.42 11.20L232.42 11.20Q232.42 11.57 232.50 11.67L232.50 11.67L232.50 11.67Q232.59 11.77 232.86 11.77L232.86 11.77L232.86 11.77Q235.78 11.75 236.30 11.69L236.30 11.69L236.30 11.69Q236.82 11.63 236.91 11.38L236.91 11.38L236.91 11.36L236.92 11.35L237.15 10.17L237.62 10.25L237.28 12.41L230.17 12.41L230.17 11.87L230.54 11.87L230.54 11.87Q231.10 11.87 231.18 11.80L231.18 11.80L231.18 11.80Q231.28 11.72 231.28 11.33L231.28 11.33L231.28 4.24L231.28 4.24Q231.28 3.82 231.13 3.73L231.13 3.73L231.13 3.73Q230.96 3.64 230.30 3.64L230.30 3.64L229.91 3.64ZM245.88 8.02L245.88 8.02L245.88 8.02Q245.88 6.86 246.35 5.83L246.35 5.83L246.35 5.83Q246.82 4.85 247.57 4.27L247.57 4.27L247.57 4.27Q248.32 3.69 249.21 3.37L249.21 3.37L249.21 3.37Q250.11 3.05 250.95 3.05L250.95 3.05L250.95 3.05Q251.82 3.05 252.49 3.16L252.49 3.16L252.49 3.16Q253.11 3.26 253.41 3.37L253.41 3.37L253.41 3.37Q253.72 3.48 253.75 3.48L253.75 3.48L253.75 3.48Q253.92 3.48 253.94 3.41L253.94 3.41L253.94 3.41Q253.97 3.33 253.97 3.09L253.97 3.09L253.97 2.97L254.50 2.97L254.50 2.97Q254.54 4.30 254.67 5.64L254.67 5.64L254.17 5.65L254.17 5.65Q254.14 5.40 254.13 5.26L254.13 5.26L254.13 5.26Q254.13 5.20 254.12 5.13L254.12 5.13L254.12 5.13Q254.11 5.07 254.11 5.02L254.11 5.02L254.11 5.02Q254.10 4.98 254.10 4.95L254.10 4.95L254.10 4.95Q254.07 4.84 254.07 4.74L254.07 4.74L254.07 4.74Q254.07 4.68 254.03 4.59L254.03 4.59L254.03 4.59Q254.03 4.57 254.00 4.55L254.00 4.55L254.00 4.55Q253.97 4.52 253.97 4.50L253.97 4.50L253.97 4.50Q253.94 4.44 253.87 4.41L253.87 4.41L253.87 4.41Q253.83 4.38 253.80 4.37L253.80 4.37L253.80 4.37Q253.78 4.36 253.75 4.35L253.75 4.35L253.75 4.35Q253.74 4.35 253.71 4.33L253.71 4.33L253.71 4.33Q253.69 4.31 253.65 4.29L253.65 4.29L253.65 4.29Q253.61 4.27 253.57 4.25L253.57 4.25L253.57 4.25Q253.34 4.16 253.31 4.14L253.31 4.14L253.31 4.14Q252.96 3.96 252.32 3.83L252.32 3.83L252.32 3.83Q251.65 3.71 250.99 3.71L250.99 3.71L250.99 3.71Q249.27 3.71 248.17 4.84L248.17 4.84L248.17 4.84Q247.06 5.99 247.07 7.62L247.07 7.62L247.07 7.62Q247.07 9.35 248.29 10.69L248.29 10.69L248.29 10.69Q249.49 12.02 251.31 12.02L251.31 12.02L251.31 12.02Q252.31 12.02 253.26 11.49L253.26 11.49L253.26 11.49Q254.21 10.94 254.24 10.58L254.24 10.58L254.28 9.41L254.77 9.41L254.69 11.45L254.69 11.45Q254.62 11.49 254.49 11.57L254.49 11.57L254.49 11.57Q254.43 11.60 253.97 11.85L253.97 11.85L253.97 11.85Q253.59 12.05 253.15 12.23L253.15 12.23L253.15 12.23Q252.79 12.39 252.14 12.51L252.14 12.51L252.14 12.51Q251.53 12.63 250.96 12.64L250.96 12.64L250.96 12.64Q248.58 12.64 247.22 11.39L247.22 11.39L247.22 11.39Q245.88 10.14 245.88 8.02ZM263.17 3.64L262.80 3.64L262.80 3.08L266.29 3.08L266.29 3.64L265.92 3.64L265.92 3.64Q265.42 3.64 265.27 3.75L265.27 3.75L265.27 3.75Q265.13 3.84 265.13 4.25L265.13 4.25L265.13 6.91L269.68 6.91L269.68 4.14L269.68 4.14Q269.68 3.77 269.58 3.71L269.58 3.71L269.58 3.71Q269.47 3.64 268.95 3.64L268.95 3.64L268.36 3.64L268.34 3.08L271.90 3.08L271.90 3.64L271.51 3.64L271.51 3.64Q271.03 3.64 270.92 3.74L270.92 3.74L270.92 3.74Q270.81 3.83 270.81 4.22L270.81 4.22L270.81 11.29L270.81 11.29Q270.81 11.67 270.95 11.77L270.95 11.77L270.95 11.77Q271.11 11.87 271.65 11.87L271.65 11.87L272.13 11.87L272.11 12.41L268.63 12.41L268.61 11.87L269.02 11.87L269.02 11.87Q269.49 11.87 269.58 11.77L269.58 11.77L269.58 11.77Q269.68 11.67 269.68 11.25L269.68 11.25L269.68 7.58L265.13 7.58L265.13 11.25L265.13 11.25Q265.13 11.67 265.28 11.77L265.28 11.77L265.28 11.77Q265.43 11.87 266.14 11.87L266.14 11.87L266.54 11.87L266.51 12.41L262.93 12.41L262.92 11.87L263.28 11.87L263.28 11.87Q263.83 11.87 263.89 11.80L263.89 11.80L263.89 11.80Q263.99 11.70 263.99 11.25L263.99 11.25L263.99 4.09L263.99 4.09Q263.99 3.76 263.85 3.71L263.85 3.71L263.85 3.71Q263.68 3.64 263.17 3.64L263.17 3.64ZM279.88 3.64L279.86 3.08L282.04 3.08L287.77 10.48L287.77 4.14L287.77 4.14Q287.77 3.81 287.62 3.72L287.62 3.72L287.62 3.72Q287.46 3.64 287.01 3.64L287.01 3.64L286.51 3.64L286.54 3.08L289.52 3.08L289.52 3.64L289.20 3.64L289.20 3.64Q288.74 3.64 288.59 3.75L288.59 3.75L288.59 3.75Q288.44 3.86 288.44 4.25L288.44 4.25L288.44 12.32L288.44 12.47L288.44 12.47Q288.44 12.52 288.42 12.57L288.42 12.57L288.42 12.57Q288.41 12.61 288.37 12.64L288.37 12.64L288.37 12.64Q288.36 12.65 288.31 12.65L288.31 12.65L288.11 12.65L288.05 12.65L288.03 12.65L288.00 12.64L288.00 12.64Q287.97 12.64 287.96 12.63L287.96 12.63L287.96 12.63Q287.94 12.61 287.94 12.60L287.94 12.60L287.94 12.60Q287.94 12.58 287.93 12.57L287.93 12.57L287.93 12.57Q287.90 12.54 287.88 12.50L287.88 12.50L287.88 12.50Q287.86 12.48 287.84 12.45L287.84 12.45L287.84 12.45Q287.82 12.41 287.81 12.40L287.81 12.40L281.70 4.56L281.77 11.22L281.77 11.22Q281.77 11.67 281.93 11.77L281.93 11.77L281.93 11.77Q282.09 11.87 282.80 11.87L282.80 11.87L283.04 11.87L283.04 12.41L280.10 12.41L280.10 11.87L280.53 11.87L280.53 11.87Q280.90 11.87 281.01 11.76L281.01 11.76L281.01 11.76Q281.11 11.66 281.11 11.25L281.11 11.25L281.11 3.80L280.97 3.64L279.88 3.64ZM297.64 7.83L297.64 7.83L297.64 7.83Q297.64 6.62 298.05 5.68L298.05 5.68L298.05 5.68Q298.46 4.72 299.15 4.12L299.15 4.12L299.15 4.12Q299.84 3.51 300.71 3.19L300.71 3.19L300.71 3.19Q301.55 2.88 302.50 2.88L302.50 2.88L302.50 2.88Q303.75 2.88 304.81 3.40L304.81 3.40L304.81 3.40Q305.89 3.93 306.60 5.07L306.60 5.07L306.60 5.07Q307.30 6.17 307.30 7.75L307.30 7.75L307.30 7.75Q307.30 8.70 307.00 9.54L307.00 9.54L307.00 9.54Q306.69 10.38 306.08 11.10L306.08 11.10L306.08 11.10Q305.48 11.81 304.54 12.22L304.54 12.22L304.54 12.22Q303.58 12.63 302.39 12.64L302.39 12.64L302.39 12.64Q301.25 12.64 300.32 12.23L300.32 12.23L300.32 12.23Q299.38 11.83 298.82 11.14L298.82 11.14L298.82 11.14Q298.25 10.45 297.95 9.60L297.95 9.60L297.95 9.60Q297.64 8.72 297.64 7.83ZM298.90 7.38L298.90 7.38L298.90 7.38Q298.90 8.52 299.33 9.60L299.33 9.60L299.33 9.60Q299.74 10.64 300.67 11.33L300.67 11.33L300.67 11.33Q301.57 12.03 302.76 12.04L302.76 12.04L302.76 12.04Q304.14 12.04 305.07 11.01L305.07 11.01L305.07 11.01Q306.02 9.97 306.02 8.10L306.02 8.10L306.02 8.10Q306.02 5.99 304.86 4.72L304.86 4.72L304.86 4.72Q303.71 3.46 302.20 3.45L302.20 3.45L302.20 3.45Q301.68 3.45 301.14 3.65L301.14 3.65L301.14 3.65Q300.60 3.85 300.09 4.25L300.09 4.25L300.09 4.25Q299.54 4.68 299.22 5.48L299.22 5.48L299.22 5.48Q298.90 6.27 298.90 7.38ZM315.91 3.64L315.42 3.64L315.43 3.08L319.02 3.08L319.02 3.64L318.38 3.64L318.38 3.64Q318.01 3.64 317.90 3.72L317.90 3.72L317.90 3.72Q317.78 3.80 317.78 4.16L317.78 4.16L317.78 11.22L317.78 11.22Q317.78 11.57 317.87 11.67L317.87 11.67L317.87 11.67Q317.95 11.77 318.25 11.77L318.25 11.77L318.25 11.77Q321.12 11.74 321.77 11.63L321.77 11.63L321.77 11.63Q321.99 11.61 322.07 11.39L322.07 11.39L322.07 11.39Q322.15 11.17 322.35 10.05L322.35 10.05L322.84 10.08L322.38 12.41L315.62 12.41L315.60 11.87L315.99 11.87L315.99 11.87Q316.50 11.87 316.57 11.80L316.57 11.80L316.57 11.80Q316.65 11.72 316.65 11.33L316.65 11.33L316.65 4.09L316.65 4.09Q316.65 3.80 316.50 3.72L316.50 3.72L316.50 3.72Q316.35 3.64 315.91 3.64L315.91 3.64ZM330.96 7.83L330.96 7.83L330.96 7.83Q330.96 6.62 331.36 5.68L331.36 5.68L331.36 5.68Q331.78 4.72 332.47 4.12L332.47 4.12L332.47 4.12Q333.16 3.51 334.02 3.19L334.02 3.19L334.02 3.19Q334.86 2.88 335.81 2.88L335.81 2.88L335.81 2.88Q337.07 2.88 338.12 3.40L338.12 3.40L338.12 3.40Q339.20 3.93 339.91 5.07L339.91 5.07L339.91 5.07Q340.61 6.17 340.61 7.75L340.61 7.75L340.61 7.75Q340.61 8.70 340.31 9.54L340.31 9.54L340.31 9.54Q340.00 10.38 339.39 11.10L339.39 11.10L339.39 11.10Q338.79 11.81 337.85 12.22L337.85 12.22L337.85 12.22Q336.89 12.63 335.70 12.64L335.70 12.64L335.70 12.64Q334.56 12.64 333.63 12.23L333.63 12.23L333.63 12.23Q332.69 11.83 332.13 11.14L332.13 11.14L332.13 11.14Q331.56 10.45 331.26 9.60L331.26 9.60L331.26 9.60Q330.96 8.72 330.96 7.83ZM332.21 7.38L332.21 7.38L332.21 7.38Q332.21 8.52 332.64 9.60L332.64 9.60L332.64 9.60Q333.05 10.64 333.98 11.33L333.98 11.33L333.98 11.33Q334.89 12.03 336.08 12.04L336.08 12.04L336.08 12.04Q337.45 12.04 338.39 11.01L338.39 11.01L338.39 11.01Q339.34 9.97 339.34 8.10L339.34 8.10L339.34 8.10Q339.34 5.99 338.17 4.72L338.17 4.72L338.17 4.72Q337.03 3.46 335.51 3.45L335.51 3.45L335.51 3.45Q335.00 3.45 334.45 3.65L334.45 3.65L334.45 3.65Q333.91 3.85 333.40 4.25L333.40 4.25L333.40 4.25Q332.86 4.68 332.53 5.48L332.53 5.48L332.53 5.48Q332.21 6.27 332.21 7.38ZM349.11 8.24L349.11 8.24L349.11 8.24Q349.11 6.92 349.73 5.72L349.73 5.72L349.73 5.72Q350.34 4.52 351.57 3.72L351.57 3.72L351.57 3.72Q352.81 2.92 354.43 2.92L354.43 2.92L354.43 2.92Q355.70 2.92 357.29 3.57L357.29 3.57L357.29 2.86L357.85 2.86L357.94 5.92L357.40 5.93L357.30 4.48L357.30 4.48Q357.22 4.41 356.95 4.24L356.95 4.24L356.95 4.24Q356.69 4.07 355.94 3.83L355.94 3.83L355.94 3.83Q355.22 3.60 354.31 3.60L354.31 3.60L354.31 3.60Q353.34 3.60 352.57 3.93L352.57 3.93L352.57 3.93Q351.80 4.27 351.33 4.83L351.33 4.83L351.33 4.83Q350.87 5.39 350.62 6.08L350.62 6.08L350.62 6.08Q350.37 6.78 350.37 7.57L350.37 7.57L350.37 7.57Q350.37 9.33 351.49 10.69L351.49 10.69L351.49 10.69Q352.61 12.05 354.47 12.05L354.47 12.05L354.47 12.05Q355.17 12.05 355.80 11.85L355.80 11.85L355.80 11.85Q356.43 11.66 356.65 11.48L356.65 11.48L356.89 11.28L356.89 8.78L355.23 8.78L355.22 8.23L359.08 8.23L359.09 8.78L358.03 8.78L358.03 11.64L357.24 11.98L357.24 11.98Q356.54 12.30 356.32 12.39L356.32 12.39L356.32 12.39Q356.06 12.48 355.42 12.61L355.42 12.61L355.42 12.61Q354.81 12.74 354.20 12.74L354.20 12.74L354.20 12.74Q352.91 12.74 351.93 12.37L351.93 12.37L351.93 12.37Q350.94 12.00 350.33 11.36L350.33 11.36L350.33 11.36Q349.74 10.76 349.42 9.94L349.42 9.94L349.42 9.94Q349.11 9.15 349.11 8.24ZM367.42 3.64L366.83 3.64L366.84 3.08L370.36 3.08L370.36 3.64L370.13 3.64L370.13 3.64Q369.58 3.64 369.41 3.73L369.41 3.73L369.41 3.73Q369.27 3.81 369.27 4.28L369.27 4.28L369.27 11.22L369.27 11.22Q369.27 11.68 369.38 11.77L369.38 11.77L369.38 11.77Q369.49 11.87 370.02 11.87L370.02 11.87L370.57 11.87L370.58 12.41L367.00 12.41L366.99 11.87L367.35 11.87L367.35 11.87Q367.91 11.87 368.02 11.77L368.02 11.77L368.02 11.77Q368.14 11.67 368.14 11.25L368.14 11.25L368.14 4.14L368.14 4.14Q368.14 3.77 368.03 3.71L368.03 3.71L368.03 3.71Q367.92 3.64 367.42 3.64L367.42 3.64ZM378.33 3.64L378.32 3.08L385.53 3.08L385.53 3.08Q385.55 4.14 385.60 5.28L385.60 5.28L385.05 5.30L385.05 5.30Q385.04 4.66 384.99 4.25L384.99 4.25L384.99 4.25Q384.95 3.89 384.89 3.80L384.89 3.80L384.89 3.80Q384.84 3.71 384.72 3.69L384.72 3.69L384.72 3.69Q384.62 3.68 384.04 3.68L384.04 3.68L381.66 3.68L381.66 3.68Q381.11 3.68 380.97 3.77L380.97 3.77L380.97 3.77Q380.84 3.86 380.84 4.33L380.84 4.33L380.84 6.28L380.84 6.28Q380.84 6.69 380.90 6.76L380.90 6.76L380.90 6.76Q380.97 6.84 381.31 6.84L381.31 6.84L383.42 6.84L383.42 6.84Q383.78 6.84 383.87 6.73L383.87 6.73L383.87 6.73Q383.95 6.63 383.95 6.14L383.95 6.14L383.95 5.61L384.47 5.63L384.47 8.97L383.95 8.97L383.95 8.24L383.95 8.24Q383.95 7.66 383.88 7.57L383.88 7.57L383.88 7.57Q383.80 7.46 383.45 7.46L383.45 7.46L381.35 7.46L381.35 7.46Q381.01 7.46 380.93 7.54L380.93 7.54L380.93 7.54Q380.84 7.63 380.84 7.89L380.84 7.89L380.84 11.20L380.84 11.20Q380.84 11.57 380.93 11.67L380.93 11.67L380.93 11.67Q381.01 11.77 381.29 11.77L381.29 11.77L381.29 11.77Q384.21 11.75 384.73 11.69L384.73 11.69L384.73 11.69Q385.25 11.63 385.33 11.38L385.33 11.38L385.34 11.36L385.35 11.35L385.57 10.17L386.05 10.25L385.70 12.41L378.60 12.41L378.60 11.87L378.97 11.87L378.97 11.87Q379.53 11.87 379.61 11.80L379.61 11.80L379.61 11.80Q379.71 11.72 379.71 11.33L379.71 11.33L379.71 4.24L379.71 4.24Q379.71 3.82 379.56 3.73L379.56 3.73L379.56 3.73Q379.39 3.64 378.73 3.64L378.73 3.64L378.33 3.64ZM394.04 14.26L394.04 14.26L394.04 14.26Q394.04 14.18 394.19 14.07L394.19 14.07L394.19 14.07Q394.22 14.04 394.53 13.86L394.53 13.86L394.53 13.86Q394.72 13.73 394.87 13.48L394.87 13.48L394.87 13.48Q395.03 13.21 395.02 12.87L395.02 12.87L395.02 12.87Q395.02 12.65 394.93 12.48L394.93 12.48L394.93 12.48Q394.84 12.33 394.71 12.28L394.71 12.28L394.71 12.28Q394.63 12.24 394.52 12.15L394.52 12.15L394.52 12.15Q394.42 12.08 394.42 12.00L394.42 12.00L394.42 12.00Q394.42 11.84 394.70 11.59L394.70 11.59L394.70 11.59Q394.98 11.33 395.06 11.33L395.06 11.33L395.06 11.33Q395.09 11.33 395.29 11.39L395.29 11.39L395.29 11.39Q395.41 11.43 395.64 11.72L395.64 11.72L395.64 11.72Q395.85 12.00 395.85 12.44L395.85 12.44L395.85 12.44Q395.85 12.86 395.67 13.31L395.67 13.31L395.67 13.31Q395.49 13.76 395.22 14.03L395.22 14.03L395.22 14.03Q394.79 14.46 394.22 14.46L394.22 14.46L394.22 14.46Q394.04 14.46 394.04 14.26ZM413.63 3.64L413.62 3.08L420.80 3.08L420.80 3.08Q420.81 4.14 420.87 5.28L420.87 5.28L420.32 5.30L420.32 5.30Q420.31 4.66 420.25 4.25L420.25 4.25L420.25 4.25Q420.21 3.89 420.16 3.80L420.16 3.80L420.16 3.80Q420.10 3.71 419.99 3.69L419.99 3.69L419.99 3.69Q419.89 3.68 419.30 3.68L419.30 3.68L416.92 3.68L416.92 3.68Q416.38 3.68 416.23 3.77L416.23 3.77L416.23 3.77Q416.11 3.86 416.11 4.33L416.11 4.33L416.11 6.28L416.11 6.28Q416.11 6.69 416.17 6.76L416.17 6.76L416.17 6.76Q416.23 6.84 416.57 6.84L416.57 6.84L418.69 6.84L418.69 6.84Q419.05 6.84 419.13 6.74L419.13 6.74L419.13 6.74Q419.21 6.64 419.21 6.17L419.21 6.17L419.21 5.63L419.73 5.63L419.73 8.97L419.21 8.97L419.21 8.26L419.21 8.26Q419.21 7.68 419.13 7.57L419.13 7.57L419.13 7.57Q419.05 7.46 418.71 7.46L418.71 7.46L416.62 7.46L416.62 7.46Q416.28 7.46 416.20 7.54L416.20 7.54L416.20 7.54Q416.11 7.63 416.11 7.89L416.11 7.89L416.11 11.20L416.11 11.20Q416.11 11.60 416.18 11.73L416.18 11.73L416.18 11.73Q416.26 11.87 416.53 11.87L416.53 11.87L417.46 11.87L417.46 12.41L413.87 12.41L413.87 11.87L414.28 11.87L414.28 11.87Q414.78 11.87 414.88 11.79L414.88 11.79L414.88 11.79Q414.98 11.70 414.98 11.33L414.98 11.33L414.98 4.24L414.98 4.24Q414.98 3.79 414.80 3.71L414.80 3.71L414.80 3.71Q414.67 3.64 413.63 3.64L413.63 3.64ZM429.30 7.83L429.30 7.83L429.30 7.83Q429.30 6.62 429.70 5.68L429.70 5.68L429.70 5.68Q430.12 4.72 430.81 4.12L430.81 4.12L430.81 4.12Q431.50 3.51 432.36 3.19L432.36 3.19L432.36 3.19Q433.20 2.88 434.15 2.88L434.15 2.88L434.15 2.88Q435.41 2.88 436.46 3.40L436.46 3.40L436.46 3.40Q437.54 3.93 438.25 5.07L438.25 5.07L438.25 5.07Q438.95 6.17 438.96 7.75L438.96 7.75L438.96 7.75Q438.96 8.70 438.65 9.54L438.65 9.54L438.65 9.54Q438.34 10.38 437.74 11.10L437.74 11.10L437.74 11.10Q437.13 11.81 436.19 12.22L436.19 12.22L436.19 12.22Q435.23 12.63 434.04 12.64L434.04 12.64L434.04 12.64Q432.91 12.64 431.97 12.23L431.97 12.23L431.97 12.23Q431.03 11.83 430.47 11.14L430.47 11.14L430.47 11.14Q429.90 10.45 429.60 9.60L429.60 9.60L429.60 9.60Q429.30 8.72 429.30 7.83ZM430.55 7.38L430.55 7.38L430.55 7.38Q430.55 8.52 430.99 9.60L430.99 9.60L430.99 9.60Q431.39 10.64 432.32 11.33L432.32 11.33L432.32 11.33Q433.23 12.03 434.42 12.04L434.42 12.04L434.42 12.04Q435.79 12.04 436.73 11.01L436.73 11.01L436.73 11.01Q437.68 9.97 437.68 8.10L437.68 8.10L437.68 8.10Q437.68 5.99 436.52 4.72L436.52 4.72L436.52 4.72Q435.37 3.46 433.86 3.45L433.86 3.45L433.86 3.45Q433.34 3.45 432.79 3.65L432.79 3.65L432.79 3.65Q432.25 3.85 431.74 4.25L431.74 4.25L431.74 4.25Q431.20 4.68 430.88 5.48L430.88 5.48L430.88 5.48Q430.55 6.27 430.55 7.38ZM447.41 3.64L447.02 3.64L447.03 3.08L450.25 3.08L450.25 3.08Q451.38 3.08 451.99 3.21L451.99 3.21L451.99 3.21Q452.63 3.37 453.09 3.75L453.09 3.75L453.09 3.75Q454.10 4.57 454.10 5.71L454.10 5.71L454.10 5.71Q454.10 6.43 453.63 7.04L453.63 7.04L453.63 7.04Q453.13 7.66 452.10 7.92L452.10 7.92L454.79 11.49L454.79 11.49Q455.10 11.87 455.39 11.87L455.39 11.87L455.99 11.87L456.02 12.41L453.99 12.41L450.99 8.10L450.82 8.10L450.82 8.10Q450.78 8.10 450.73 8.11L450.73 8.11L450.73 8.11Q450.67 8.11 450.66 8.11L450.66 8.11L450.66 8.11Q449.78 8.11 449.38 8.03L449.38 8.03L449.38 11.46L449.38 11.46Q449.38 11.76 449.52 11.81L449.52 11.81L449.52 11.81Q449.65 11.87 450.35 11.87L450.35 11.87L451.06 11.87L451.04 12.41L447.31 12.41L447.31 11.87L447.63 11.87L447.63 11.87Q448.10 11.87 448.16 11.81L448.16 11.81L448.16 11.81Q448.25 11.74 448.25 11.46L448.25 11.46L448.25 4.14L448.25 4.14Q448.25 3.82 448.05 3.73L448.05 3.73L448.05 3.73Q447.83 3.64 447.41 3.64L447.41 3.64ZM449.38 4.28L449.38 7.57L449.38 7.57Q449.57 7.70 450.28 7.71L450.28 7.71L450.28 7.71Q451.55 7.71 452.13 7.27L452.13 7.27L452.13 7.27Q452.72 6.84 452.72 5.92L452.72 5.92L452.72 5.92Q452.72 4.92 451.94 4.27L451.94 4.27L451.94 4.27Q451.19 3.64 449.80 3.64L449.80 3.64L449.80 3.64Q449.55 3.64 449.47 3.75L449.47 3.75L449.47 3.75Q449.39 3.84 449.38 4.28L449.38 4.28ZM466.94 12.41L463.91 12.41L463.91 11.87L464.05 11.87L464.05 11.87Q464.64 11.87 464.75 11.77L464.75 11.77L464.75 11.77Q464.88 11.68 464.89 11.21L464.89 11.21L465.02 4.38L465.02 4.38Q465.02 4.35 465.03 4.28L465.03 4.28L465.03 4.28Q465.04 4.21 465.04 4.17L465.04 4.17L465.04 4.01L465.04 4.01Q465.04 3.76 464.96 3.71L464.96 3.71L464.96 3.71Q464.86 3.64 464.64 3.64L464.64 3.64L463.93 3.64L463.91 3.08L466.03 3.08L469.22 10.55L472.36 3.08L474.59 3.08L474.59 3.64L474.12 3.64L474.12 3.64Q473.67 3.64 473.55 3.71L473.55 3.71L473.55 3.71Q473.39 3.79 473.39 4.08L473.39 4.08L473.39 11.22L473.39 11.22Q473.39 11.68 473.50 11.77L473.50 11.77L473.50 11.77Q473.61 11.87 474.24 11.87L474.24 11.87L474.52 11.87L474.54 12.41L471.14 12.41L471.12 11.87L471.40 11.87L471.40 11.87Q472.01 11.87 472.13 11.77L472.13 11.77L472.13 11.77Q472.25 11.66 472.25 11.25L472.25 11.25L472.25 4.83L470.10 9.91L469.25 12.02L469.25 12.02Q469.11 12.37 469.06 12.44L469.06 12.44L469.06 12.44Q469.02 12.51 468.95 12.51L468.95 12.51L468.95 12.51Q468.86 12.51 468.41 11.52L468.41 11.52L465.60 5.01L465.53 11.39L465.53 11.39Q465.53 11.74 465.73 11.80L465.73 11.80L465.73 11.80Q465.97 11.87 466.94 11.87L466.94 11.87L466.94 12.41ZM482.28 3.64L482.26 3.08L489.47 3.08L489.47 3.08Q489.49 4.14 489.54 5.28L489.54 5.28L489.00 5.30L489.00 5.30Q488.98 4.66 488.93 4.25L488.93 4.25L488.93 4.25Q488.89 3.89 488.83 3.80L488.83 3.80L488.83 3.80Q488.78 3.71 488.66 3.69L488.66 3.69L488.66 3.69Q488.56 3.68 487.98 3.68L487.98 3.68L485.60 3.68L485.60 3.68Q485.05 3.68 484.91 3.77L484.91 3.77L484.91 3.77Q484.78 3.86 484.78 4.33L484.78 4.33L484.78 6.28L484.78 6.28Q484.78 6.69 484.84 6.76L484.84 6.76L484.84 6.76Q484.91 6.84 485.25 6.84L485.25 6.84L487.36 6.84L487.36 6.84Q487.72 6.84 487.81 6.73L487.81 6.73L487.81 6.73Q487.89 6.63 487.89 6.14L487.89 6.14L487.89 5.61L488.41 5.63L488.41 8.97L487.89 8.97L487.89 8.24L487.89 8.24Q487.89 7.66 487.82 7.57L487.82 7.57L487.82 7.57Q487.74 7.46 487.39 7.46L487.39 7.46L485.29 7.46L485.29 7.46Q484.96 7.46 484.87 7.54L484.87 7.54L484.87 7.54Q484.78 7.63 484.78 7.89L484.78 7.89L484.78 11.20L484.78 11.20Q484.78 11.57 484.87 11.67L484.87 11.67L484.87 11.67Q484.96 11.77 485.23 11.77L485.23 11.77L485.23 11.77Q488.15 11.75 488.67 11.69L488.67 11.69L488.67 11.69Q489.19 11.63 489.28 11.38L489.28 11.38L489.28 11.36L489.29 11.35L489.51 10.17L489.99 10.25L489.64 12.41L482.54 12.41L482.54 11.87L482.91 11.87L482.91 11.87Q483.47 11.87 483.55 11.80L483.55 11.80L483.55 11.80Q483.65 11.72 483.65 11.33L483.65 11.33L483.65 4.24L483.65 4.24Q483.65 3.82 483.50 3.73L483.50 3.73L483.50 3.73Q483.33 3.64 482.67 3.64L482.67 3.64L482.28 3.64ZM497.88 3.64L497.87 3.08L500.04 3.08L505.78 10.48L505.78 4.14L505.78 4.14Q505.78 3.81 505.62 3.72L505.62 3.72L505.62 3.72Q505.47 3.64 505.01 3.64L505.01 3.64L504.52 3.64L504.55 3.08L507.53 3.08L507.53 3.64L507.21 3.64L507.21 3.64Q506.74 3.64 506.59 3.75L506.59 3.75L506.59 3.75Q506.44 3.86 506.44 4.25L506.44 4.25L506.44 12.32L506.44 12.47L506.44 12.47Q506.44 12.52 506.43 12.57L506.43 12.57L506.43 12.57Q506.41 12.61 506.38 12.64L506.38 12.64L506.38 12.64Q506.37 12.65 506.31 12.65L506.31 12.65L506.12 12.65L506.06 12.65L506.03 12.65L506.00 12.64L506.00 12.64Q505.98 12.64 505.96 12.63L505.96 12.63L505.96 12.63Q505.95 12.61 505.95 12.60L505.95 12.60L505.95 12.60Q505.95 12.58 505.93 12.57L505.93 12.57L505.93 12.57Q505.91 12.54 505.88 12.50L505.88 12.50L505.88 12.50Q505.87 12.48 505.85 12.45L505.85 12.45L505.85 12.45Q505.83 12.41 505.81 12.40L505.81 12.40L499.71 4.56L499.78 11.22L499.78 11.22Q499.78 11.67 499.94 11.77L499.94 11.77L499.94 11.77Q500.10 11.87 500.81 11.87L500.81 11.87L501.05 11.87L501.05 12.41L498.11 12.41L498.11 11.87L498.53 11.87L498.53 11.87Q498.91 11.87 499.02 11.76L499.02 11.76L499.02 11.76Q499.11 11.66 499.12 11.25L499.12 11.25L499.12 3.80L498.98 3.64L497.88 3.64ZM525.33 3.64L524.84 3.64L524.85 3.08L528.44 3.08L528.44 3.64L527.80 3.64L527.80 3.64Q527.43 3.64 527.31 3.72L527.31 3.72L527.31 3.72Q527.20 3.80 527.20 4.16L527.20 4.16L527.20 11.22L527.20 11.22Q527.20 11.57 527.29 11.67L527.29 11.67L527.29 11.67Q527.37 11.77 527.67 11.77L527.67 11.77L527.67 11.77Q530.54 11.74 531.19 11.63L531.19 11.63L531.19 11.63Q531.41 11.61 531.49 11.39L531.49 11.39L531.49 11.39Q531.57 11.17 531.77 10.05L531.77 10.05L532.26 10.08L531.79 12.41L525.03 12.41L525.02 11.87L525.41 11.87L525.41 11.87Q525.92 11.87 525.98 11.80L525.98 11.80L525.98 11.80Q526.07 11.72 526.07 11.33L526.07 11.33L526.07 4.09L526.07 4.09Q526.07 3.80 525.92 3.72L525.92 3.72L525.92 3.72Q525.77 3.64 525.33 3.64L525.33 3.64ZM545.89 12.41L540.34 12.41L540.34 2.49L545.89 2.49L545.89 12.41ZM541.52 4.14L541.52 4.14L541.52 4.14Q541.52 4.37 541.75 4.36L541.75 4.36L541.75 4.36Q541.82 4.36 541.98 4.35L541.98 4.35L541.98 4.35Q542.14 4.35 542.22 4.35L542.22 4.35L542.53 4.35L542.53 4.35Q543.07 4.35 543.59 4.67L543.59 4.67L543.59 4.67Q544.10 4.99 544.09 5.32L544.09 5.32L544.09 5.32Q544.09 5.65 543.86 5.97L543.86 5.97L543.86 5.97Q543.66 6.25 543.31 6.55L543.31 6.55L542.66 7.10L542.66 7.10Q542.34 7.38 542.11 7.74L542.11 7.74L542.11 7.74Q541.88 8.09 541.88 8.51L541.88 8.51L541.88 8.51Q541.88 9.21 542.32 9.69L542.32 9.69L542.32 9.69Q542.77 10.18 543.09 10.17L543.09 10.17L543.09 10.17Q543.33 10.17 543.33 9.95L543.33 9.95L543.33 9.95Q543.33 9.84 543.05 9.54L543.05 9.54L543.05 9.54Q542.75 9.23 542.75 8.87L542.75 8.87L542.75 8.87Q542.75 8.59 542.99 8.31L542.99 8.31L542.99 8.31Q543.26 8.00 543.72 7.59L543.72 7.59L543.72 7.59Q544.25 7.13 544.53 6.80L544.53 6.80L544.53 6.80Q544.89 6.35 544.89 5.78L544.89 5.78L544.89 5.78Q544.89 4.91 544.07 4.08L544.07 4.08L544.07 4.08Q543.25 3.27 542.71 3.27L542.71 3.27L542.71 3.27Q542.34 3.27 541.93 3.61L541.93 3.61L541.93 3.61Q541.52 3.94 541.52 4.14ZM542.30 11.27L542.30 11.27L542.30 11.27Q542.30 11.40 542.54 11.67L542.54 11.67L542.54 11.67Q542.77 11.91 542.96 11.94L542.96 11.94L542.96 11.94Q543.17 11.92 543.41 11.64L543.41 11.64L543.41 11.64Q543.65 11.36 543.65 11.27L543.65 11.27L543.65 11.27Q543.65 11.11 543.41 10.85L543.41 10.85L543.41 10.85Q543.18 10.61 542.99 10.61L542.99 10.61L542.99 10.61Q542.79 10.61 542.55 10.83L542.55 10.83L542.55 10.83Q542.30 11.07 542.30 11.27ZM553.96 10.04L553.96 10.04L554.46 9.98L554.64 10.85L554.64 10.85Q554.75 11.33 554.82 11.41L554.82 11.41L554.82 11.41Q554.89 11.49 555.30 11.64L555.30 11.64L555.30 11.64Q556.14 11.95 557.03 11.95L557.03 11.95L557.03 11.95Q557.82 11.95 558.36 11.49L558.36 11.49L558.36 11.49Q558.89 11.04 558.89 10.26L558.89 10.26L558.89 10.26Q558.89 9.65 558.43 9.21L558.43 9.21L558.43 9.21Q557.96 8.76 557.10 8.30L557.10 8.30L556.53 7.98L556.53 7.98Q555.78 7.55 555.55 7.36L555.55 7.36L555.55 7.36Q555.19 7.08 554.88 6.59L554.88 6.59L554.88 6.59Q554.57 6.10 554.57 5.46L554.57 5.46L554.57 5.46Q554.57 4.39 555.41 3.68L555.41 3.68L555.41 3.68Q556.25 2.97 557.35 2.97L557.35 2.97L557.35 2.97Q557.63 2.97 557.98 3.04L557.98 3.04L557.98 3.04Q558.18 3.08 558.52 3.17L558.52 3.17L558.76 3.25L558.76 3.25Q558.85 3.25 558.89 3.16L558.89 3.16L558.89 3.16Q558.95 3.05 558.95 2.98L558.95 2.98L558.96 2.88L559.44 2.85L559.65 5.41L559.15 5.43L559.02 4.18L559.02 4.18Q558.28 3.62 557.12 3.62L557.12 3.62L557.12 3.62Q556.47 3.62 555.97 4.05L555.97 4.05L555.97 4.05Q555.49 4.47 555.49 5.12L555.49 5.12L555.49 5.12Q555.49 5.72 555.94 6.17L555.94 6.17L555.94 6.17Q556.37 6.60 557.24 7.08L557.24 7.08L558.01 7.50L558.01 7.50Q558.96 8.03 559.49 8.59L559.49 8.59L559.49 8.59Q560.03 9.15 560.03 9.92L560.03 9.92L560.03 9.92Q560.03 10.99 559.17 11.76L559.17 11.76L559.17 11.76Q558.30 12.54 556.85 12.54L556.85 12.54L556.85 12.54Q556.29 12.54 555.79 12.41L555.79 12.41L555.79 12.41Q555.28 12.29 555.23 12.29L555.23 12.29L555.23 12.29Q554.98 12.29 554.98 12.58L554.98 12.58L554.99 12.76L554.51 12.80L554.51 12.80Q554.45 12.41 553.96 10.04ZM568.59 3.64L568.21 3.64L568.21 3.08L571.57 3.08L571.59 3.64L571.05 3.64L571.05 3.64Q570.62 3.64 570.47 3.73L570.47 3.73L570.47 3.73Q570.29 3.83 570.29 4.16L570.29 4.16L570.29 9.33L570.29 9.33Q570.29 9.63 570.33 9.78L570.33 9.78L570.33 9.78Q570.37 10.01 570.53 10.41L570.53 10.41L570.53 10.41Q570.71 10.80 571.00 11.09L571.00 11.09L571.00 11.09Q571.31 11.40 571.87 11.63L571.87 11.63L571.87 11.63Q572.44 11.85 573.22 11.85L573.22 11.85L573.22 11.85Q574.08 11.85 574.62 11.67L574.62 11.67L574.62 11.67Q575.18 11.48 575.49 11.22L575.49 11.22L575.49 11.22Q575.80 10.96 575.94 10.49L575.94 10.49L575.94 10.49Q576.11 9.95 576.12 9.66L576.12 9.66L576.12 9.66Q576.15 9.18 576.15 8.67L576.15 8.67L576.15 4.14L576.15 4.14Q576.15 3.81 576.01 3.72L576.01 3.72L576.01 3.72Q575.86 3.64 575.38 3.64L575.38 3.64L574.89 3.64L574.92 3.08L577.55 3.08L577.55 3.64L577.36 3.64L577.36 3.64Q577.04 3.64 576.92 3.75L576.92 3.75L576.92 3.75Q576.81 3.86 576.81 4.25L576.81 4.25L576.81 9.22L576.81 9.22Q576.81 12.67 573.22 12.67L573.22 12.67L573.22 12.67Q571.05 12.67 570.10 11.76L570.10 11.76L570.10 11.76Q569.17 10.86 569.17 9.41L569.17 9.41L569.17 4.14L569.17 4.14Q569.17 3.81 569.06 3.72L569.06 3.72L569.06 3.72Q568.96 3.64 568.59 3.64L568.59 3.64ZM585.30 3.64L585.29 3.08L587.46 3.08L593.20 10.48L593.20 4.14L593.20 4.14Q593.20 3.81 593.04 3.72L593.04 3.72L593.04 3.72Q592.89 3.64 592.43 3.64L592.43 3.64L591.94 3.64L591.96 3.08L594.95 3.08L594.95 3.64L594.62 3.64L594.62 3.64Q594.16 3.64 594.01 3.75L594.01 3.75L594.01 3.75Q593.86 3.86 593.86 4.25L593.86 4.25L593.86 12.32L593.86 12.47L593.86 12.47Q593.86 12.52 593.84 12.57L593.84 12.57L593.84 12.57Q593.83 12.61 593.80 12.64L593.80 12.64L593.80 12.64Q593.78 12.65 593.73 12.65L593.73 12.65L593.54 12.65L593.48 12.65L593.45 12.65L593.42 12.64L593.42 12.64Q593.39 12.64 593.38 12.63L593.38 12.63L593.38 12.63Q593.37 12.61 593.37 12.60L593.37 12.60L593.37 12.60Q593.37 12.58 593.35 12.57L593.35 12.57L593.35 12.57Q593.33 12.54 593.30 12.50L593.30 12.50L593.30 12.50Q593.28 12.48 593.26 12.45L593.26 12.45L593.26 12.45Q593.24 12.41 593.23 12.40L593.23 12.40L587.13 4.56L587.19 11.22L587.19 11.22Q587.19 11.67 587.36 11.77L587.36 11.77L587.36 11.77Q587.51 11.87 588.23 11.87L588.23 11.87L588.46 11.87L588.46 12.41L585.53 12.41L585.53 11.87L585.95 11.87L585.95 11.87Q586.33 11.87 586.43 11.76L586.43 11.76L586.43 11.76Q586.53 11.66 586.54 11.25L586.54 11.25L586.54 3.80L586.39 3.64L585.30 3.64ZM603.07 8.24L603.07 8.24L603.07 8.24Q603.07 6.92 603.68 5.72L603.68 5.72L603.68 5.72Q604.30 4.52 605.53 3.72L605.53 3.72L605.53 3.72Q606.76 2.92 608.38 2.92L608.38 2.92L608.38 2.92Q609.66 2.92 611.24 3.57L611.24 3.57L611.24 2.86L611.80 2.86L611.90 5.92L611.35 5.93L611.26 4.48L611.26 4.48Q611.17 4.41 610.90 4.24L610.90 4.24L610.90 4.24Q610.65 4.07 609.90 3.83L609.90 3.83L609.90 3.83Q609.17 3.60 608.27 3.60L608.27 3.60L608.27 3.60Q607.29 3.60 606.52 3.93L606.52 3.93L606.52 3.93Q605.75 4.27 605.29 4.83L605.29 4.83L605.29 4.83Q604.82 5.39 604.58 6.08L604.58 6.08L604.58 6.08Q604.32 6.78 604.32 7.57L604.32 7.57L604.32 7.57Q604.32 9.33 605.45 10.69L605.45 10.69L605.45 10.69Q606.57 12.05 608.43 12.05L608.43 12.05L608.43 12.05Q609.12 12.05 609.76 11.85L609.76 11.85L609.76 11.85Q610.39 11.66 610.61 11.48L610.61 11.48L610.85 11.28L610.85 8.78L609.18 8.78L609.17 8.23L613.03 8.23L613.05 8.78L611.98 8.78L611.98 11.64L611.19 11.98L611.19 11.98Q610.50 12.30 610.27 12.39L610.27 12.39L610.27 12.39Q610.02 12.48 609.38 12.61L609.38 12.61L609.38 12.61Q608.77 12.74 608.16 12.74L608.16 12.74L608.16 12.74Q606.86 12.74 605.89 12.37L605.89 12.37L605.89 12.37Q604.90 12.00 604.28 11.36L604.28 11.36L604.28 11.36Q603.70 10.76 603.37 9.94L603.37 9.94L603.37 9.94Q603.07 9.15 603.07 8.24ZM620.80 3.64L620.79 3.08L628.00 3.08L628.00 3.08Q628.01 4.14 628.07 5.28L628.07 5.28L627.52 5.30L627.52 5.30Q627.50 4.66 627.45 4.25L627.45 4.25L627.45 4.25Q627.41 3.89 627.35 3.80L627.35 3.80L627.35 3.80Q627.30 3.71 627.18 3.69L627.18 3.69L627.18 3.69Q627.09 3.68 626.50 3.68L626.50 3.68L624.12 3.68L624.12 3.68Q623.57 3.68 623.43 3.77L623.43 3.77L623.43 3.77Q623.31 3.86 623.31 4.33L623.31 4.33L623.31 6.28L623.31 6.28Q623.31 6.69 623.36 6.76L623.36 6.76L623.36 6.76Q623.43 6.84 623.77 6.84L623.77 6.84L625.88 6.84L625.88 6.84Q626.25 6.84 626.33 6.73L626.33 6.73L626.33 6.73Q626.41 6.63 626.42 6.14L626.42 6.14L626.42 5.61L626.93 5.63L626.93 8.97L626.42 8.97L626.42 8.24L626.42 8.24Q626.42 7.66 626.34 7.57L626.34 7.57L626.34 7.57Q626.26 7.46 625.91 7.46L625.91 7.46L623.81 7.46L623.81 7.46Q623.48 7.46 623.39 7.54L623.39 7.54L623.39 7.54Q623.31 7.63 623.31 7.89L623.31 7.89L623.31 11.20L623.31 11.20Q623.31 11.57 623.39 11.67L623.39 11.67L623.39 11.67Q623.48 11.77 623.75 11.77L623.75 11.77L623.75 11.77Q626.67 11.75 627.20 11.69L627.20 11.69L627.20 11.69Q627.72 11.63 627.80 11.38L627.80 11.38L627.81 11.36L627.81 11.35L628.04 10.17L628.52 10.25L628.17 12.41L621.07 12.41L621.07 11.87L621.43 11.87L621.43 11.87Q622.00 11.87 622.08 11.80L622.08 11.80L622.08 11.80Q622.17 11.72 622.17 11.33L622.17 11.33L622.17 4.24L622.17 4.24Q622.17 3.82 622.02 3.73L622.02 3.73L622.02 3.73Q621.85 3.64 621.20 3.64L621.20 3.64L620.80 3.64ZM636.41 3.64L636.39 3.08L638.57 3.08L644.30 10.48L644.30 4.14L644.30 4.14Q644.30 3.81 644.15 3.72L644.15 3.72L644.15 3.72Q643.99 3.64 643.54 3.64L643.54 3.64L643.04 3.64L643.07 3.08L646.05 3.08L646.05 3.64L645.73 3.64L645.73 3.64Q645.26 3.64 645.11 3.75L645.11 3.75L645.11 3.75Q644.96 3.86 644.96 4.25L644.96 4.25L644.96 12.32L644.96 12.47L644.96 12.47Q644.96 12.52 644.95 12.57L644.95 12.57L644.95 12.57Q644.94 12.61 644.90 12.64L644.90 12.64L644.90 12.64Q644.89 12.65 644.83 12.65L644.83 12.65L644.64 12.65L644.58 12.65L644.55 12.65L644.53 12.64L644.53 12.64Q644.50 12.64 644.49 12.63L644.49 12.63L644.49 12.63Q644.47 12.61 644.47 12.60L644.47 12.60L644.47 12.60Q644.47 12.58 644.46 12.57L644.46 12.57L644.46 12.57Q644.43 12.54 644.40 12.50L644.40 12.50L644.40 12.50Q644.39 12.48 644.37 12.45L644.37 12.45L644.37 12.45Q644.35 12.41 644.33 12.40L644.33 12.40L638.23 4.56L638.30 11.22L638.30 11.22Q638.30 11.67 638.46 11.77L638.46 11.77L638.46 11.77Q638.62 11.87 639.33 11.87L639.33 11.87L639.57 11.87L639.57 12.41L636.63 12.41L636.63 11.87L637.05 11.87L637.05 11.87Q637.43 11.87 637.54 11.76L637.54 11.76L637.54 11.76Q637.64 11.66 637.64 11.25L637.64 11.25L637.64 3.80L637.50 3.64L636.41 3.64ZM653.91 14.26L653.91 14.26L653.91 14.26Q653.91 14.18 654.06 14.07L654.06 14.07L654.06 14.07Q654.08 14.04 654.39 13.86L654.39 13.86L654.39 13.86Q654.58 13.73 654.73 13.48L654.73 13.48L654.73 13.48Q654.89 13.21 654.88 12.87L654.88 12.87L654.88 12.87Q654.88 12.65 654.79 12.48L654.79 12.48L654.79 12.48Q654.71 12.33 654.58 12.28L654.58 12.28L654.58 12.28Q654.49 12.24 654.38 12.15L654.38 12.15L654.38 12.15Q654.28 12.08 654.28 12.00L654.28 12.00L654.28 12.00Q654.28 11.84 654.56 11.59L654.56 11.59L654.56 11.59Q654.84 11.33 654.92 11.33L654.92 11.33L654.92 11.33Q654.95 11.33 655.15 11.39L655.15 11.39L655.15 11.39Q655.27 11.43 655.50 11.72L655.50 11.72L655.50 11.72Q655.71 12.00 655.71 12.44L655.71 12.44L655.71 12.44Q655.71 12.86 655.53 13.31L655.53 13.31L655.53 13.31Q655.35 13.76 655.08 14.03L655.08 14.03L655.08 14.03Q654.65 14.46 654.08 14.46L654.08 14.46L654.08 14.46Q653.91 14.46 653.91 14.26ZM673.45 10.04L673.45 10.04L673.94 9.98L674.13 10.85L674.13 10.85Q674.24 11.33 674.30 11.41L674.30 11.41L674.30 11.41Q674.37 11.49 674.78 11.64L674.78 11.64L674.78 11.64Q675.62 11.95 676.52 11.95L676.52 11.95L676.52 11.95Q677.30 11.95 677.84 11.49L677.84 11.49L677.84 11.49Q678.38 11.04 678.38 10.26L678.38 10.26L678.38 10.26Q678.38 9.65 677.92 9.21L677.92 9.21L677.92 9.21Q677.44 8.76 676.59 8.30L676.59 8.30L676.01 7.98L676.01 7.98Q675.27 7.55 675.04 7.36L675.04 7.36L675.04 7.36Q674.67 7.08 674.36 6.59L674.36 6.59L674.36 6.59Q674.05 6.10 674.05 5.46L674.05 5.46L674.05 5.46Q674.05 4.39 674.89 3.68L674.89 3.68L674.89 3.68Q675.73 2.97 676.84 2.97L676.84 2.97L676.84 2.97Q677.12 2.97 677.47 3.04L677.47 3.04L677.47 3.04Q677.67 3.08 678.00 3.17L678.00 3.17L678.24 3.25L678.24 3.25Q678.34 3.25 678.38 3.16L678.38 3.16L678.38 3.16Q678.43 3.05 678.43 2.98L678.43 2.98L678.45 2.88L678.92 2.85L679.14 5.41L678.63 5.43L678.51 4.18L678.51 4.18Q677.76 3.62 676.60 3.62L676.60 3.62L676.60 3.62Q675.96 3.62 675.45 4.05L675.45 4.05L675.45 4.05Q674.97 4.47 674.97 5.12L674.97 5.12L674.97 5.12Q674.97 5.72 675.42 6.17L675.42 6.17L675.42 6.17Q675.86 6.60 676.72 7.08L676.72 7.08L677.50 7.50L677.50 7.50Q678.45 8.03 678.98 8.59L678.98 8.59L678.98 8.59Q679.51 9.15 679.51 9.92L679.51 9.92L679.51 9.92Q679.51 10.99 678.66 11.76L678.66 11.76L678.66 11.76Q677.79 12.54 676.33 12.54L676.33 12.54L676.33 12.54Q675.77 12.54 675.27 12.41L675.27 12.41L675.27 12.41Q674.77 12.29 674.71 12.29L674.71 12.29L674.71 12.29Q674.46 12.29 674.46 12.58L674.46 12.58L674.47 12.76L674.00 12.80L674.00 12.80Q673.93 12.41 673.45 10.04ZM687.98 5.35L687.48 5.33L687.48 5.33Q687.60 4.17 687.68 3.08L687.68 3.08L695.76 3.08L695.76 3.08Q695.68 4.13 695.65 4.53L695.65 4.53L695.65 4.53Q695.61 5.26 695.59 5.32L695.59 5.32L695.09 5.30L695.09 5.30Q695.17 4.34 695.17 4.16L695.17 4.16L695.17 4.16Q695.17 3.88 695.03 3.79L695.03 3.79L695.03 3.79Q694.86 3.69 694.46 3.69L694.46 3.69L692.85 3.69L692.85 3.69Q692.34 3.69 692.22 3.79L692.22 3.79L692.22 3.79Q692.13 3.87 692.12 4.36L692.12 4.36L692.12 11.22L692.12 11.22Q692.12 11.66 692.26 11.76L692.26 11.76L692.26 11.76Q692.42 11.87 692.93 11.87L692.93 11.87L693.49 11.87L693.51 12.41L689.81 12.40L689.81 11.87L690.03 11.87L690.03 11.87Q690.70 11.87 690.85 11.79L690.85 11.79L690.85 11.79Q690.99 11.70 690.99 11.28L690.99 11.28L690.99 4.48L690.99 4.48Q690.99 3.92 690.89 3.80L690.89 3.80L690.89 3.80Q690.79 3.69 690.37 3.69L690.37 3.69L688.90 3.69L688.90 3.69Q688.71 3.69 688.65 3.71L688.65 3.71L688.65 3.71Q688.58 3.72 688.47 3.72L688.47 3.72L688.47 3.72Q688.44 3.72 688.32 3.79L688.32 3.79L688.32 3.79Q688.24 3.84 688.21 3.86L688.21 3.86L688.21 3.86Q688.19 3.88 688.15 3.99L688.15 3.99L688.15 3.99Q688.12 4.05 688.09 4.14L688.09 4.14L688.09 4.14Q688.06 4.21 688.04 4.36L688.04 4.36L688.04 4.36Q688.02 4.59 688.02 4.61L688.02 4.61L688.02 4.61Q688.02 4.80 688.00 4.95L688.00 4.95L688.00 4.95Q688.00 5.02 688.00 5.15L688.00 5.15L688.00 5.15Q687.99 5.29 687.98 5.35L687.98 5.35ZM709.40 12.41L703.85 12.41L703.85 2.49L709.40 2.49L709.40 12.41ZM705.03 4.14L705.03 4.14L705.03 4.14Q705.03 4.37 705.26 4.36L705.26 4.36L705.26 4.36Q705.33 4.36 705.49 4.35L705.49 4.35L705.49 4.35Q705.65 4.35 705.73 4.35L705.73 4.35L706.04 4.35L706.04 4.35Q706.58 4.35 707.10 4.67L707.10 4.67L707.10 4.67Q707.61 4.99 707.60 5.32L707.60 5.32L707.60 5.32Q707.60 5.65 707.37 5.97L707.37 5.97L707.37 5.97Q707.17 6.25 706.82 6.55L706.82 6.55L706.17 7.10L706.17 7.10Q705.85 7.38 705.62 7.74L705.62 7.74L705.62 7.74Q705.39 8.09 705.39 8.51L705.39 8.51L705.39 8.51Q705.39 9.21 705.82 9.69L705.82 9.69L705.82 9.69Q706.28 10.18 706.60 10.17L706.60 10.17L706.60 10.17Q706.84 10.17 706.84 9.95L706.84 9.95L706.84 9.95Q706.84 9.84 706.56 9.54L706.56 9.54L706.56 9.54Q706.26 9.23 706.26 8.87L706.26 8.87L706.26 8.87Q706.26 8.59 706.50 8.31L706.50 8.31L706.50 8.31Q706.77 8.00 707.23 7.59L707.23 7.59L707.23 7.59Q707.76 7.13 708.04 6.80L708.04 6.80L708.04 6.80Q708.40 6.35 708.40 5.78L708.40 5.78L708.40 5.78Q708.40 4.91 707.57 4.08L707.57 4.08L707.57 4.08Q706.76 3.27 706.22 3.27L706.22 3.27L706.22 3.27Q705.84 3.27 705.44 3.61L705.44 3.61L705.44 3.61Q705.03 3.94 705.03 4.14ZM705.81 11.27L705.81 11.27L705.81 11.27Q705.81 11.40 706.05 11.67L706.05 11.67L706.05 11.67Q706.28 11.91 706.47 11.94L706.47 11.94L706.47 11.94Q706.68 11.92 706.92 11.64L706.92 11.64L706.92 11.64Q707.16 11.36 707.16 11.27L707.16 11.27L707.16 11.27Q707.16 11.11 706.92 10.85L706.92 10.85L706.92 10.85Q706.69 10.61 706.50 10.61L706.50 10.61L706.50 10.61Q706.30 10.61 706.06 10.83L706.06 10.83L706.06 10.83Q705.81 11.07 705.81 11.27ZM717.83 3.64L717.45 3.64L717.46 3.08L720.68 3.08L720.68 3.08Q721.81 3.08 722.42 3.21L722.42 3.21L722.42 3.21Q723.06 3.37 723.52 3.75L723.52 3.75L723.52 3.75Q724.53 4.57 724.53 5.71L724.53 5.71L724.53 5.71Q724.53 6.43 724.06 7.04L724.06 7.04L724.06 7.04Q723.56 7.66 722.53 7.92L722.53 7.92L725.22 11.49L725.22 11.49Q725.53 11.87 725.82 11.87L725.82 11.87L726.42 11.87L726.45 12.41L724.42 12.41L721.42 8.10L721.25 8.10L721.25 8.10Q721.21 8.10 721.16 8.11L721.16 8.11L721.16 8.11Q721.10 8.11 721.09 8.11L721.09 8.11L721.09 8.11Q720.21 8.11 719.81 8.03L719.81 8.03L719.81 11.46L719.81 11.46Q719.81 11.76 719.95 11.81L719.95 11.81L719.95 11.81Q720.08 11.87 720.78 11.87L720.78 11.87L721.49 11.87L721.46 12.41L717.74 12.41L717.74 11.87L718.06 11.87L718.06 11.87Q718.53 11.87 718.59 11.81L718.59 11.81L718.59 11.81Q718.68 11.74 718.68 11.46L718.68 11.46L718.68 4.14L718.68 4.14Q718.68 3.82 718.48 3.73L718.48 3.73L718.48 3.73Q718.26 3.64 717.83 3.64L717.83 3.64ZM719.81 4.28L719.81 7.57L719.81 7.57Q720.00 7.70 720.71 7.71L720.71 7.71L720.71 7.71Q721.98 7.71 722.56 7.27L722.56 7.27L722.56 7.27Q723.15 6.84 723.15 5.92L723.15 5.92L723.15 5.92Q723.15 4.92 722.37 4.27L722.37 4.27L722.37 4.27Q721.62 3.64 720.23 3.64L720.23 3.64L720.23 3.64Q719.98 3.64 719.90 3.75L719.90 3.75L719.90 3.75Q719.82 3.84 719.81 4.28L719.81 4.28ZM734.79 3.64L734.20 3.64L734.20 3.08L737.70 3.08L737.70 3.64L737.26 3.64L737.26 3.64Q736.85 3.64 736.75 3.73L736.75 3.73L736.75 3.73Q736.64 3.84 736.64 4.28L736.64 4.28L736.64 7.50L740.73 4.18L740.73 4.18Q741.08 3.89 741.08 3.77L741.08 3.77L741.08 3.77Q741.08 3.64 740.43 3.64L740.43 3.64L739.89 3.64L739.86 3.08L743.22 3.08L743.22 3.64L742.85 3.64L742.85 3.64Q742.42 3.64 742.21 3.76L742.21 3.76L742.21 3.76Q742.04 3.86 741.16 4.55L741.16 4.55L737.99 7.08L742.23 11.49L742.23 11.49Q742.59 11.87 742.83 11.87L742.83 11.87L743.64 11.87L743.61 12.41L741.41 12.41L737.15 7.74L736.64 8.16L736.64 11.22L736.64 11.22Q736.64 11.70 736.81 11.79L736.81 11.79L736.81 11.79Q736.98 11.87 737.74 11.87L737.74 11.87L738.05 11.87L738.05 12.41L734.47 12.41L734.45 11.87L734.83 11.87L734.83 11.87Q735.33 11.87 735.42 11.79L735.42 11.79L735.42 11.79Q735.51 11.70 735.51 11.25L735.51 11.25L735.51 4.14L735.51 4.14Q735.51 3.77 735.40 3.71L735.40 3.71L735.40 3.71Q735.29 3.64 734.79 3.64L734.79 3.64ZM751.39 3.64L751.37 3.08L758.58 3.08L758.58 3.08Q758.60 4.14 758.65 5.28L758.65 5.28L758.11 5.30L758.11 5.30Q758.09 4.66 758.04 4.25L758.04 4.25L758.04 4.25Q758.00 3.89 757.94 3.80L757.94 3.80L757.94 3.80Q757.89 3.71 757.77 3.69L757.77 3.69L757.77 3.69Q757.67 3.68 757.09 3.68L757.09 3.68L754.71 3.68L754.71 3.68Q754.16 3.68 754.02 3.77L754.02 3.77L754.02 3.77Q753.89 3.86 753.89 4.33L753.89 4.33L753.89 6.28L753.89 6.28Q753.89 6.69 753.95 6.76L753.95 6.76L753.95 6.76Q754.02 6.84 754.36 6.84L754.36 6.84L756.47 6.84L756.47 6.84Q756.83 6.84 756.92 6.73L756.92 6.73L756.92 6.73Q757.00 6.63 757.00 6.14L757.00 6.14L757.00 5.61L757.52 5.63L757.52 8.97L757.00 8.97L757.00 8.24L757.00 8.24Q757.00 7.66 756.93 7.57L756.93 7.57L756.93 7.57Q756.85 7.46 756.50 7.46L756.50 7.46L754.40 7.46L754.40 7.46Q754.07 7.46 753.98 7.54L753.98 7.54L753.98 7.54Q753.89 7.63 753.89 7.89L753.89 7.89L753.89 11.20L753.89 11.20Q753.89 11.57 753.98 11.67L753.98 11.67L753.98 11.67Q754.07 11.77 754.34 11.77L754.34 11.77L754.34 11.77Q757.26 11.75 757.78 11.69L757.78 11.69L757.78 11.69Q758.30 11.63 758.39 11.38L758.39 11.38L758.39 11.36L758.40 11.35L758.63 10.17L759.10 10.25L758.75 12.41L751.65 12.41L751.65 11.87L752.02 11.87L752.02 11.87Q752.58 11.87 752.66 11.80L752.66 11.80L752.66 11.80Q752.76 11.72 752.76 11.33L752.76 11.33L752.76 4.24L752.76 4.24Q752.76 3.82 752.61 3.73L752.61 3.73L752.61 3.73Q752.44 3.64 751.78 3.64L751.78 3.64L751.39 3.64ZM766.99 3.64L766.98 3.08L769.15 3.08L774.89 10.48L774.89 4.14L774.89 4.14Q774.89 3.81 774.73 3.72L774.73 3.72L774.73 3.72Q774.58 3.64 774.12 3.64L774.12 3.64L773.63 3.64L773.66 3.08L776.64 3.08L776.64 3.64L776.32 3.64L776.32 3.64Q775.85 3.64 775.70 3.75L775.70 3.75L775.70 3.75Q775.55 3.86 775.55 4.25L775.55 4.25L775.55 12.32L775.55 12.47L775.55 12.47Q775.55 12.52 775.54 12.57L775.54 12.57L775.54 12.57Q775.52 12.61 775.49 12.64L775.49 12.64L775.49 12.64Q775.48 12.65 775.42 12.65L775.42 12.65L775.23 12.65L775.17 12.65L775.14 12.65L775.11 12.64L775.11 12.64Q775.09 12.64 775.07 12.63L775.07 12.63L775.07 12.63Q775.06 12.61 775.06 12.60L775.06 12.60L775.06 12.60Q775.06 12.58 775.04 12.57L775.04 12.57L775.04 12.57Q775.02 12.54 774.99 12.50L774.99 12.50L774.99 12.50Q774.98 12.48 774.96 12.45L774.96 12.45L774.96 12.45Q774.94 12.41 774.92 12.40L774.92 12.40L768.82 4.56L768.89 11.22L768.89 11.22Q768.89 11.67 769.05 11.77L769.05 11.77L769.05 11.77Q769.21 11.87 769.92 11.87L769.92 11.87L770.16 11.87L770.16 12.41L767.22 12.41L767.22 11.87L767.64 11.87L767.64 11.87Q768.02 11.87 768.13 11.76L768.13 11.76L768.13 11.76Q768.22 11.66 768.23 11.25L768.23 11.25L768.23 3.80L768.09 3.64L766.99 3.64ZM794.53 3.64L793.95 3.64L793.96 3.08L797.47 3.08L797.47 3.64L797.24 3.64L797.24 3.64Q796.69 3.64 796.52 3.73L796.52 3.73L796.52 3.73Q796.39 3.81 796.39 4.28L796.39 4.28L796.39 11.22L796.39 11.22Q796.39 11.68 796.50 11.77L796.50 11.77L796.50 11.77Q796.61 11.87 797.14 11.87L797.14 11.87L797.69 11.87L797.70 12.41L794.12 12.41L794.10 11.87L794.47 11.87L794.47 11.87Q795.03 11.87 795.14 11.77L795.14 11.77L795.14 11.77Q795.25 11.67 795.25 11.25L795.25 11.25L795.25 4.14L795.25 4.14Q795.25 3.77 795.15 3.71L795.15 3.71L795.15 3.71Q795.04 3.64 794.53 3.64L794.53 3.64ZM805.81 3.64L805.44 3.64L805.44 3.08L808.92 3.08L808.92 3.64L808.56 3.64L808.56 3.64Q808.06 3.64 807.91 3.75L807.91 3.75L807.91 3.75Q807.77 3.84 807.76 4.25L807.76 4.25L807.76 6.91L812.31 6.91L812.31 4.14L812.31 4.14Q812.31 3.77 812.22 3.71L812.22 3.71L812.22 3.71Q812.11 3.64 811.58 3.64L811.58 3.64L811.00 3.64L810.98 3.08L814.54 3.08L814.54 3.64L814.15 3.64L814.15 3.64Q813.67 3.64 813.56 3.74L813.56 3.74L813.56 3.74Q813.45 3.83 813.45 4.22L813.45 4.22L813.45 11.29L813.45 11.29Q813.45 11.67 813.59 11.77L813.59 11.77L813.59 11.77Q813.74 11.87 814.29 11.87L814.29 11.87L814.76 11.87L814.75 12.41L811.26 12.41L811.25 11.87L811.66 11.87L811.66 11.87Q812.12 11.87 812.22 11.77L812.22 11.77L812.22 11.77Q812.31 11.67 812.31 11.25L812.31 11.25L812.31 7.58L807.76 7.58L807.76 11.25L807.76 11.25Q807.76 11.67 807.92 11.77L807.92 11.77L807.92 11.77Q808.07 11.87 808.77 11.87L808.77 11.87L809.18 11.87L809.15 12.41L805.57 12.41L805.55 11.87L805.92 11.87L805.92 11.87Q806.46 11.87 806.53 11.80L806.53 11.80L806.53 11.80Q806.63 11.70 806.63 11.25L806.63 11.25L806.63 4.09L806.63 4.09Q806.63 3.76 806.49 3.71L806.49 3.71L806.49 3.71Q806.32 3.64 805.81 3.64L805.81 3.64ZM822.83 3.64L822.45 3.64L822.46 3.08L825.68 3.08L825.68 3.08Q826.81 3.08 827.42 3.21L827.42 3.21L827.42 3.21Q828.06 3.37 828.52 3.75L828.52 3.75L828.52 3.75Q829.53 4.57 829.53 5.71L829.53 5.71L829.53 5.71Q829.53 6.43 829.06 7.04L829.06 7.04L829.06 7.04Q828.56 7.66 827.53 7.92L827.53 7.92L830.22 11.49L830.22 11.49Q830.53 11.87 830.82 11.87L830.82 11.87L831.42 11.87L831.45 12.41L829.42 12.41L826.42 8.10L826.25 8.10L826.25 8.10Q826.21 8.10 826.16 8.11L826.16 8.11L826.16 8.11Q826.10 8.11 826.09 8.11L826.09 8.11L826.09 8.11Q825.21 8.11 824.81 8.03L824.81 8.03L824.81 11.46L824.81 11.46Q824.81 11.76 824.95 11.81L824.95 11.81L824.95 11.81Q825.08 11.87 825.78 11.87L825.78 11.87L826.49 11.87L826.46 12.41L822.74 12.41L822.74 11.87L823.06 11.87L823.06 11.87Q823.53 11.87 823.59 11.81L823.59 11.81L823.59 11.81Q823.68 11.74 823.68 11.46L823.68 11.46L823.68 4.14L823.68 4.14Q823.68 3.82 823.48 3.73L823.48 3.73L823.48 3.73Q823.26 3.64 822.83 3.64L822.83 3.64ZM824.81 4.28L824.81 7.57L824.81 7.57Q825.00 7.70 825.71 7.71L825.71 7.71L825.71 7.71Q826.98 7.71 827.56 7.27L827.56 7.27L827.56 7.27Q828.15 6.84 828.15 5.92L828.15 5.92L828.15 5.92Q828.15 4.92 827.37 4.27L827.37 4.27L827.37 4.27Q826.62 3.64 825.23 3.64L825.23 3.64L825.23 3.64Q824.98 3.64 824.90 3.75L824.90 3.75L824.90 3.75Q824.82 3.84 824.81 4.28L824.81 4.28ZM839.21 3.64L839.20 3.08L846.41 3.08L846.41 3.08Q846.43 4.14 846.48 5.28L846.48 5.28L845.93 5.30L845.93 5.30Q845.92 4.66 845.87 4.25L845.87 4.25L845.87 4.25Q845.82 3.89 845.77 3.80L845.77 3.80L845.77 3.80Q845.71 3.71 845.60 3.69L845.60 3.69L845.60 3.69Q845.50 3.68 844.92 3.68L844.92 3.68L842.54 3.68L842.54 3.68Q841.99 3.68 841.85 3.77L841.85 3.77L841.85 3.77Q841.72 3.86 841.72 4.33L841.72 4.33L841.72 6.28L841.72 6.28Q841.72 6.69 841.78 6.76L841.78 6.76L841.78 6.76Q841.85 6.84 842.19 6.84L842.19 6.84L844.30 6.84L844.30 6.84Q844.66 6.84 844.74 6.73L844.74 6.73L844.74 6.73Q844.83 6.63 844.83 6.14L844.83 6.14L844.83 5.61L845.35 5.63L845.35 8.97L844.83 8.97L844.83 8.24L844.83 8.24Q844.83 7.66 844.76 7.57L844.76 7.57L844.76 7.57Q844.68 7.46 844.33 7.46L844.33 7.46L842.23 7.46L842.23 7.46Q841.89 7.46 841.81 7.54L841.81 7.54L841.81 7.54Q841.72 7.63 841.72 7.89L841.72 7.89L841.72 11.20L841.72 11.20Q841.72 11.57 841.81 11.67L841.81 11.67L841.81 11.67Q841.89 11.77 842.17 11.77L842.17 11.77L842.17 11.77Q845.09 11.75 845.61 11.69L845.61 11.69L845.61 11.69Q846.13 11.63 846.21 11.38L846.21 11.38L846.22 11.36L846.23 11.35L846.45 10.17L846.93 10.25L846.58 12.41L839.48 12.41L839.48 11.87L839.85 11.87L839.85 11.87Q840.41 11.87 840.49 11.80L840.49 11.80L840.49 11.80Q840.59 11.72 840.59 11.33L840.59 11.33L840.59 4.24L840.59 4.24Q840.59 3.82 840.44 3.73L840.44 3.73L840.44 3.73Q840.27 3.64 839.61 3.64L839.61 3.64L839.21 3.64ZM864.76 7.83L864.76 7.83L864.76 7.83Q864.76 6.62 865.16 5.68L865.16 5.68L865.16 5.68Q865.58 4.72 866.27 4.12L866.27 4.12L866.27 4.12Q866.96 3.51 867.82 3.19L867.82 3.19L867.82 3.19Q868.66 2.88 869.61 2.88L869.61 2.88L869.61 2.88Q870.87 2.88 871.92 3.40L871.92 3.40L871.92 3.40Q873.00 3.93 873.71 5.07L873.71 5.07L873.71 5.07Q874.41 6.17 874.42 7.75L874.42 7.75L874.42 7.75Q874.42 8.70 874.11 9.54L874.11 9.54L874.11 9.54Q873.80 10.38 873.20 11.10L873.20 11.10L873.20 11.10Q872.59 11.81 871.66 12.22L871.66 12.22L871.66 12.22Q870.69 12.63 869.50 12.64L869.50 12.64L869.50 12.64Q868.37 12.64 867.43 12.23L867.43 12.23L867.43 12.23Q866.50 11.83 865.94 11.14L865.94 11.14L865.94 11.14Q865.36 10.45 865.07 9.60L865.07 9.60L865.07 9.60Q864.76 8.72 864.76 7.83ZM866.02 7.38L866.02 7.38L866.02 7.38Q866.02 8.52 866.45 9.60L866.45 9.60L866.45 9.60Q866.85 10.64 867.78 11.33L867.78 11.33L867.78 11.33Q868.69 12.03 869.88 12.04L869.88 12.04L869.88 12.04Q871.25 12.04 872.19 11.01L872.19 11.01L872.19 11.01Q873.14 9.97 873.14 8.10L873.14 8.10L873.14 8.10Q873.14 5.99 871.98 4.72L871.98 4.72L871.98 4.72Q870.83 3.46 869.32 3.45L869.32 3.45L869.32 3.45Q868.80 3.45 868.26 3.65L868.26 3.65L868.26 3.65Q867.71 3.85 867.21 4.25L867.21 4.25L867.21 4.25Q866.66 4.68 866.34 5.48L866.34 5.48L866.34 5.48Q866.02 6.27 866.02 7.38ZM882.55 3.64L882.53 3.08L884.71 3.08L890.44 10.48L890.44 4.14L890.44 4.14Q890.44 3.81 890.29 3.72L890.29 3.72L890.29 3.72Q890.13 3.64 889.68 3.64L889.68 3.64L889.18 3.64L889.21 3.08L892.19 3.08L892.19 3.64L891.87 3.64L891.87 3.64Q891.41 3.64 891.26 3.75L891.26 3.75L891.26 3.75Q891.11 3.86 891.11 4.25L891.11 4.25L891.11 12.32L891.11 12.47L891.11 12.47Q891.11 12.52 891.09 12.57L891.09 12.57L891.09 12.57Q891.08 12.61 891.04 12.64L891.04 12.64L891.04 12.64Q891.03 12.65 890.98 12.65L890.98 12.65L890.78 12.65L890.72 12.65L890.70 12.65L890.67 12.64L890.67 12.64Q890.64 12.64 890.63 12.63L890.63 12.63L890.63 12.63Q890.61 12.61 890.61 12.60L890.61 12.60L890.61 12.60Q890.61 12.58 890.60 12.57L890.60 12.57L890.60 12.57Q890.57 12.54 890.54 12.50L890.54 12.50L890.54 12.50Q890.53 12.48 890.51 12.45L890.51 12.45L890.51 12.45Q890.49 12.41 890.48 12.40L890.48 12.40L884.37 4.56L884.44 11.22L884.44 11.22Q884.44 11.67 884.60 11.77L884.60 11.77L884.60 11.77Q884.76 11.87 885.47 11.87L885.47 11.87L885.71 11.87L885.71 12.41L882.77 12.41L882.77 11.87L883.20 11.87L883.20 11.87Q883.57 11.87 883.68 11.76L883.68 11.76L883.68 11.76Q883.78 11.66 883.78 11.25L883.78 11.25L883.78 3.80L883.64 3.64L882.55 3.64ZM900.42 3.64L899.93 3.64L899.94 3.08L903.53 3.08L903.53 3.64L902.90 3.64L902.90 3.64Q902.52 3.64 902.41 3.72L902.41 3.72L902.41 3.72Q902.30 3.80 902.30 4.16L902.30 4.16L902.30 11.22L902.30 11.22Q902.30 11.57 902.38 11.67L902.38 11.67L902.38 11.67Q902.47 11.77 902.76 11.77L902.76 11.77L902.76 11.77Q905.63 11.74 906.29 11.63L906.29 11.63L906.29 11.63Q906.50 11.61 906.58 11.39L906.58 11.39L906.58 11.39Q906.66 11.17 906.86 10.05L906.86 10.05L907.35 10.08L906.89 12.41L900.13 12.41L900.12 11.87L900.50 11.87L900.50 11.87Q901.01 11.87 901.08 11.80L901.08 11.80L901.08 11.80Q901.16 11.72 901.17 11.33L901.17 11.33L901.17 4.09L901.17 4.09Q901.17 3.80 901.01 3.72L901.01 3.72L901.01 3.72Q900.86 3.64 900.42 3.64L900.42 3.64ZM915.67 3.64L915.09 3.64L915.10 3.08L918.61 3.08L918.61 3.64L918.38 3.64L918.38 3.64Q917.83 3.64 917.66 3.73L917.66 3.73L917.66 3.73Q917.53 3.81 917.53 4.28L917.53 4.28L917.53 11.22L917.53 11.22Q917.53 11.68 917.64 11.77L917.64 11.77L917.64 11.77Q917.75 11.87 918.28 11.87L918.28 11.87L918.83 11.87L918.84 12.41L915.26 12.41L915.24 11.87L915.61 11.87L915.61 11.87Q916.17 11.87 916.28 11.77L916.28 11.77L916.28 11.77Q916.39 11.67 916.39 11.25L916.39 11.25L916.39 4.14L916.39 4.14Q916.39 3.77 916.29 3.71L916.29 3.71L916.29 3.71Q916.18 3.64 915.67 3.64L915.67 3.64ZM926.59 3.64L926.58 3.08L928.75 3.08L934.49 10.48L934.49 4.14L934.49 4.14Q934.49 3.81 934.33 3.72L934.33 3.72L934.33 3.72Q934.18 3.64 933.72 3.64L933.72 3.64L933.23 3.64L933.26 3.08L936.24 3.08L936.24 3.64L935.92 3.64L935.92 3.64Q935.45 3.64 935.30 3.75L935.30 3.75L935.30 3.75Q935.15 3.86 935.15 4.25L935.15 4.25L935.15 12.32L935.15 12.47L935.15 12.47Q935.15 12.52 935.14 12.57L935.14 12.57L935.14 12.57Q935.12 12.61 935.09 12.64L935.09 12.64L935.09 12.64Q935.07 12.65 935.02 12.65L935.02 12.65L934.83 12.65L934.77 12.65L934.74 12.65L934.71 12.64L934.71 12.64Q934.68 12.64 934.67 12.63L934.67 12.63L934.67 12.63Q934.66 12.61 934.66 12.60L934.66 12.60L934.66 12.60Q934.66 12.58 934.64 12.57L934.64 12.57L934.64 12.57Q934.62 12.54 934.59 12.50L934.59 12.50L934.59 12.50Q934.58 12.48 934.55 12.45L934.55 12.45L934.55 12.45Q934.53 12.41 934.52 12.40L934.52 12.40L928.42 4.56L928.48 11.22L928.48 11.22Q928.48 11.67 928.65 11.77L928.65 11.77L928.65 11.77Q928.81 11.87 929.52 11.87L929.52 11.87L929.76 11.87L929.76 12.41L926.82 12.41L926.82 11.87L927.24 11.87L927.24 11.87Q927.62 11.87 927.73 11.76L927.73 11.76L927.73 11.76Q927.82 11.66 927.83 11.25L927.83 11.25L927.83 3.80L927.68 3.64L926.59 3.64ZM943.99 3.64L943.97 3.08L951.19 3.08L951.19 3.08Q951.20 4.14 951.25 5.28L951.25 5.28L950.71 5.30L950.71 5.30Q950.69 4.66 950.64 4.25L950.64 4.25L950.64 4.25Q950.60 3.89 950.54 3.80L950.54 3.80L950.54 3.80Q950.49 3.71 950.37 3.69L950.37 3.69L950.37 3.69Q950.28 3.68 949.69 3.68L949.69 3.68L947.31 3.68L947.31 3.68Q946.76 3.68 946.62 3.77L946.62 3.77L946.62 3.77Q946.50 3.86 946.50 4.33L946.50 4.33L946.50 6.28L946.50 6.28Q946.50 6.69 946.55 6.76L946.55 6.76L946.55 6.76Q946.62 6.84 946.96 6.84L946.96 6.84L949.07 6.84L949.07 6.84Q949.44 6.84 949.52 6.73L949.52 6.73L949.52 6.73Q949.60 6.63 949.61 6.14L949.61 6.14L949.61 5.61L950.12 5.63L950.12 8.97L949.61 8.97L949.61 8.24L949.61 8.24Q949.61 7.66 949.53 7.57L949.53 7.57L949.53 7.57Q949.45 7.46 949.10 7.46L949.10 7.46L947.00 7.46L947.00 7.46Q946.67 7.46 946.58 7.54L946.58 7.54L946.58 7.54Q946.50 7.63 946.50 7.89L946.50 7.89L946.50 11.20L946.50 11.20Q946.50 11.57 946.58 11.67L946.58 11.67L946.58 11.67Q946.67 11.77 946.94 11.77L946.94 11.77L946.94 11.77Q949.86 11.75 950.39 11.69L950.39 11.69L950.39 11.69Q950.91 11.63 950.99 11.38L950.99 11.38L951.00 11.36L951.00 11.35L951.23 10.17L951.71 10.25L951.36 12.41L944.25 12.41L944.25 11.87L944.62 11.87L944.62 11.87Q945.18 11.87 945.27 11.80L945.27 11.80L945.27 11.80Q945.36 11.72 945.36 11.33L945.36 11.33L945.36 4.24L945.36 4.24Q945.36 3.82 945.21 3.73L945.21 3.73L945.21 3.73Q945.04 3.64 944.38 3.64L944.38 3.64L943.99 3.64ZM963.14 8.03L959.68 9.04L959.68 8.20L963.14 7.18L963.14 8.03ZM974.70 12.41L970.98 12.41L970.98 11.87L971.41 11.87L971.41 11.87Q971.79 11.87 971.84 11.81L971.84 11.81L971.84 11.81Q971.91 11.74 971.92 11.46L971.92 11.46L971.92 4.14L971.92 4.14Q971.92 3.81 971.83 3.72L971.83 3.72L971.83 3.72Q971.75 3.64 971.39 3.64L971.39 3.64L971.02 3.64L971.03 3.08L973.92 3.08L973.92 3.08Q975.06 3.08 975.71 3.19L975.71 3.19L975.71 3.19Q976.32 3.28 976.79 3.68L976.79 3.68L976.79 3.68Q977.98 4.64 977.98 6.19L977.98 6.19L977.98 6.19Q977.98 7.23 977.21 7.98L977.21 7.98L977.21 7.98Q976.43 8.74 975.02 8.73L975.02 8.73L975.02 8.73Q974.85 8.73 974.44 8.70L974.44 8.70L974.44 8.70Q974.33 8.69 973.90 8.62L973.90 8.62L973.90 8.62Q973.57 8.55 973.47 8.54L973.47 8.54L973.47 8.54Q973.18 8.47 973.16 8.46L973.16 8.46L973.05 8.44L973.05 11.46L973.05 11.46Q973.05 11.74 973.18 11.81L973.18 11.81L973.18 11.81Q973.29 11.87 974.00 11.87L974.00 11.87L974.70 11.87L974.70 12.41ZM973.05 4.28L973.05 8.02L973.05 8.02Q973.40 8.29 974.37 8.29L974.37 8.29L974.37 8.29Q975.50 8.29 976.08 7.75L976.08 7.75L976.08 7.75Q976.66 7.21 976.66 6.16L976.66 6.16L976.66 6.16Q976.66 4.98 975.75 4.31L975.75 4.31L975.75 4.31Q974.86 3.64 973.47 3.64L973.47 3.64L973.47 3.64Q973.22 3.64 973.14 3.75L973.14 3.75L973.14 3.75Q973.05 3.84 973.05 4.28L973.05 4.28ZM986.29 3.64L985.90 3.64L985.91 3.08L989.13 3.08L989.13 3.08Q990.27 3.08 990.87 3.21L990.87 3.21L990.87 3.21Q991.51 3.37 991.98 3.75L991.98 3.75L991.98 3.75Q992.98 4.57 992.98 5.71L992.98 5.71L992.98 5.71Q992.98 6.43 992.51 7.04L992.51 7.04L992.51 7.04Q992.02 7.66 990.99 7.92L990.99 7.92L993.67 11.49L993.67 11.49Q993.98 11.87 994.27 11.87L994.27 11.87L994.88 11.87L994.90 12.41L992.87 12.41L989.88 8.10L989.71 8.10L989.71 8.10Q989.67 8.10 989.61 8.11L989.61 8.11L989.61 8.11Q989.56 8.11 989.54 8.11L989.54 8.11L989.54 8.11Q988.66 8.11 988.26 8.03L988.26 8.03L988.26 11.46L988.26 11.46Q988.26 11.76 988.41 11.81L988.41 11.81L988.41 11.81Q988.53 11.87 989.24 11.87L989.24 11.87L989.95 11.87L989.92 12.41L986.19 12.41L986.19 11.87L986.51 11.87L986.51 11.87Q986.98 11.87 987.05 11.81L987.05 11.81L987.05 11.81Q987.13 11.74 987.13 11.46L987.13 11.46L987.13 4.14L987.13 4.14Q987.13 3.82 986.94 3.73L986.94 3.73L986.94 3.73Q986.71 3.64 986.29 3.64L986.29 3.64ZM988.26 4.28L988.26 7.57L988.26 7.57Q988.45 7.70 989.16 7.71L989.16 7.71L989.16 7.71Q990.43 7.71 991.01 7.27L991.01 7.27L991.01 7.27Q991.60 6.84 991.60 5.92L991.60 5.92L991.60 5.92Q991.60 4.92 990.83 4.27L990.83 4.27L990.83 4.27Q990.07 3.64 988.69 3.64L988.69 3.64L988.69 3.64Q988.44 3.64 988.35 3.75L988.35 3.75L988.35 3.75Q988.27 3.84 988.26 4.28L988.26 4.28ZM1008.55 12.41L1003.00 12.41L1003.00 2.49L1008.55 2.49L1008.55 12.41ZM1004.19 4.14L1004.19 4.14L1004.19 4.14Q1004.19 4.37 1004.42 4.36L1004.42 4.36L1004.42 4.36Q1004.49 4.36 1004.64 4.35L1004.64 4.35L1004.64 4.35Q1004.80 4.35 1004.88 4.35L1004.88 4.35L1005.19 4.35L1005.19 4.35Q1005.74 4.35 1006.26 4.67L1006.26 4.67L1006.26 4.67Q1006.76 4.99 1006.76 5.32L1006.76 5.32L1006.76 5.32Q1006.76 5.65 1006.52 5.97L1006.52 5.97L1006.52 5.97Q1006.33 6.25 1005.98 6.55L1005.98 6.55L1005.33 7.10L1005.33 7.10Q1005.01 7.38 1004.77 7.74L1004.77 7.74L1004.77 7.74Q1004.55 8.09 1004.55 8.51L1004.55 8.51L1004.55 8.51Q1004.55 9.21 1004.98 9.69L1004.98 9.69L1004.98 9.69Q1005.43 10.18 1005.75 10.17L1005.75 10.17L1005.75 10.17Q1005.99 10.17 1005.99 9.95L1005.99 9.95L1005.99 9.95Q1005.99 9.84 1005.71 9.54L1005.71 9.54L1005.71 9.54Q1005.42 9.23 1005.42 8.87L1005.42 8.87L1005.42 8.87Q1005.42 8.59 1005.66 8.31L1005.66 8.31L1005.66 8.31Q1005.92 8.00 1006.38 7.59L1006.38 7.59L1006.38 7.59Q1006.91 7.13 1007.19 6.80L1007.19 6.80L1007.19 6.80Q1007.56 6.35 1007.56 5.78L1007.56 5.78L1007.56 5.78Q1007.56 4.91 1006.73 4.08L1006.73 4.08L1006.73 4.08Q1005.92 3.27 1005.38 3.27L1005.38 3.27L1005.38 3.27Q1005.00 3.27 1004.59 3.61L1004.59 3.61L1004.59 3.61Q1004.19 3.94 1004.19 4.14ZM1004.96 11.27L1004.96 11.27L1004.96 11.27Q1004.96 11.40 1005.20 11.67L1005.20 11.67L1005.20 11.67Q1005.43 11.91 1005.62 11.94L1005.62 11.94L1005.62 11.94Q1005.83 11.92 1006.07 11.64L1006.07 11.64L1006.07 11.64Q1006.31 11.36 1006.31 11.27L1006.31 11.27L1006.31 11.27Q1006.31 11.11 1006.07 10.85L1006.07 10.85L1006.07 10.85Q1005.85 10.61 1005.65 10.61L1005.65 10.61L1005.65 10.61Q1005.46 10.61 1005.22 10.83L1005.22 10.83L1005.22 10.83Q1004.96 11.07 1004.96 11.27ZM1016.63 10.04L1016.63 10.04L1017.12 9.98L1017.30 10.85L1017.30 10.85Q1017.41 11.33 1017.48 11.41L1017.48 11.41L1017.48 11.41Q1017.55 11.49 1017.96 11.64L1017.96 11.64L1017.96 11.64Q1018.80 11.95 1019.70 11.95L1019.70 11.95L1019.70 11.95Q1020.48 11.95 1021.02 11.49L1021.02 11.49L1021.02 11.49Q1021.56 11.04 1021.56 10.26L1021.56 10.26L1021.56 10.26Q1021.56 9.65 1021.10 9.21L1021.10 9.21L1021.10 9.21Q1020.62 8.76 1019.76 8.30L1019.76 8.30L1019.19 7.98L1019.19 7.98Q1018.45 7.55 1018.21 7.36L1018.21 7.36L1018.21 7.36Q1017.85 7.08 1017.54 6.59L1017.54 6.59L1017.54 6.59Q1017.23 6.10 1017.23 5.46L1017.23 5.46L1017.23 5.46Q1017.23 4.39 1018.07 3.68L1018.07 3.68L1018.07 3.68Q1018.91 2.97 1020.02 2.97L1020.02 2.97L1020.02 2.97Q1020.30 2.97 1020.65 3.04L1020.65 3.04L1020.65 3.04Q1020.84 3.08 1021.18 3.17L1021.18 3.17L1021.42 3.25L1021.42 3.25Q1021.51 3.25 1021.56 3.16L1021.56 3.16L1021.56 3.16Q1021.61 3.05 1021.61 2.98L1021.61 2.98L1021.62 2.88L1022.10 2.85L1022.31 5.41L1021.81 5.43L1021.69 4.18L1021.69 4.18Q1020.94 3.62 1019.78 3.62L1019.78 3.62L1019.78 3.62Q1019.14 3.62 1018.63 4.05L1018.63 4.05L1018.63 4.05Q1018.15 4.47 1018.15 5.12L1018.15 5.12L1018.15 5.12Q1018.15 5.72 1018.60 6.17L1018.60 6.17L1018.60 6.17Q1019.03 6.60 1019.90 7.08L1019.90 7.08L1020.67 7.50L1020.67 7.50Q1021.62 8.03 1022.16 8.59L1022.16 8.59L1022.16 8.59Q1022.69 9.15 1022.69 9.92L1022.69 9.92L1022.69 9.92Q1022.69 10.99 1021.84 11.76L1021.84 11.76L1021.84 11.76Q1020.97 12.54 1019.51 12.54L1019.51 12.54L1019.51 12.54Q1018.95 12.54 1018.45 12.41L1018.45 12.41L1018.45 12.41Q1017.95 12.29 1017.89 12.29L1017.89 12.29L1017.89 12.29Q1017.64 12.29 1017.64 12.58L1017.64 12.58L1017.65 12.76L1017.17 12.80L1017.17 12.80Q1017.11 12.41 1016.63 10.04ZM1030.89 3.64L1030.87 3.08L1038.08 3.08L1038.08 3.08Q1038.10 4.14 1038.15 5.28L1038.15 5.28L1037.61 5.30L1037.61 5.30Q1037.59 4.66 1037.54 4.25L1037.54 4.25L1037.54 4.25Q1037.50 3.89 1037.44 3.80L1037.44 3.80L1037.44 3.80Q1037.39 3.71 1037.27 3.69L1037.27 3.69L1037.27 3.69Q1037.18 3.68 1036.59 3.68L1036.59 3.68L1034.21 3.68L1034.21 3.68Q1033.66 3.68 1033.52 3.77L1033.52 3.77L1033.52 3.77Q1033.40 3.86 1033.40 4.33L1033.40 4.33L1033.40 6.28L1033.40 6.28Q1033.40 6.69 1033.45 6.76L1033.45 6.76L1033.45 6.76Q1033.52 6.84 1033.86 6.84L1033.86 6.84L1035.97 6.84L1035.97 6.84Q1036.33 6.84 1036.42 6.73L1036.42 6.73L1036.42 6.73Q1036.50 6.63 1036.51 6.14L1036.51 6.14L1036.51 5.61L1037.02 5.63L1037.02 8.97L1036.51 8.97L1036.51 8.24L1036.51 8.24Q1036.51 7.66 1036.43 7.57L1036.43 7.57L1036.43 7.57Q1036.35 7.46 1036 7.46L1036 7.46L1033.90 7.46L1033.90 7.46Q1033.57 7.46 1033.48 7.54L1033.48 7.54L1033.48 7.54Q1033.40 7.63 1033.40 7.89L1033.40 7.89L1033.40 11.20L1033.40 11.20Q1033.40 11.57 1033.48 11.67L1033.48 11.67L1033.48 11.67Q1033.57 11.77 1033.84 11.77L1033.84 11.77L1033.84 11.77Q1036.76 11.75 1037.29 11.69L1037.29 11.69L1037.29 11.69Q1037.80 11.63 1037.89 11.38L1037.89 11.38L1037.89 11.36L1037.90 11.35L1038.13 10.17L1038.60 10.25L1038.26 12.41L1031.15 12.41L1031.15 11.87L1031.52 11.87L1031.52 11.87Q1032.08 11.87 1032.17 11.80L1032.17 11.80L1032.17 11.80Q1032.26 11.72 1032.26 11.33L1032.26 11.33L1032.26 4.24L1032.26 4.24Q1032.26 3.82 1032.11 3.73L1032.11 3.73L1032.11 3.73Q1031.94 3.64 1031.28 3.64L1031.28 3.64L1030.89 3.64ZM1046.49 3.64L1046.48 3.08L1048.65 3.08L1054.39 10.48L1054.39 4.14L1054.39 4.14Q1054.39 3.81 1054.23 3.72L1054.23 3.72L1054.23 3.72Q1054.08 3.64 1053.62 3.64L1053.62 3.64L1053.13 3.64L1053.16 3.08L1056.14 3.08L1056.14 3.64L1055.82 3.64L1055.82 3.64Q1055.35 3.64 1055.20 3.75L1055.20 3.75L1055.20 3.75Q1055.05 3.86 1055.05 4.25L1055.05 4.25L1055.05 12.32L1055.05 12.47L1055.05 12.47Q1055.05 12.52 1055.04 12.57L1055.04 12.57L1055.04 12.57Q1055.02 12.61 1054.99 12.64L1054.99 12.64L1054.99 12.64Q1054.98 12.65 1054.92 12.65L1054.92 12.65L1054.73 12.65L1054.67 12.65L1054.64 12.65L1054.61 12.64L1054.61 12.64Q1054.59 12.64 1054.57 12.63L1054.57 12.63L1054.57 12.63Q1054.56 12.61 1054.56 12.60L1054.56 12.60L1054.56 12.60Q1054.56 12.58 1054.55 12.57L1054.55 12.57L1054.55 12.57Q1054.52 12.54 1054.49 12.50L1054.49 12.50L1054.49 12.50Q1054.48 12.48 1054.46 12.45L1054.46 12.45L1054.46 12.45Q1054.44 12.41 1054.42 12.40L1054.42 12.40L1048.32 4.56L1048.39 11.22L1048.39 11.22Q1048.39 11.67 1048.55 11.77L1048.55 11.77L1048.55 11.77Q1048.71 11.87 1049.42 11.87L1049.42 11.87L1049.66 11.87L1049.66 12.41L1046.72 12.41L1046.72 11.87L1047.14 11.87L1047.14 11.87Q1047.52 11.87 1047.63 11.76L1047.63 11.76L1047.63 11.76Q1047.72 11.66 1047.73 11.25L1047.73 11.25L1047.73 3.80L1047.59 3.64L1046.49 3.64ZM1063.88 12.13L1063.88 12.13L1063.88 12.13Q1063.88 12.08 1063.97 11.95L1063.97 11.95L1063.97 11.95Q1064.02 11.87 1064.26 11.60L1064.26 11.60L1064.26 11.60Q1064.37 11.48 1064.44 11.41L1064.44 11.41L1064.44 11.41Q1064.51 11.33 1064.54 11.29L1064.54 11.29L1070.82 4.18L1065.11 4.18L1065.11 4.18Q1064.84 4.18 1064.77 4.31L1064.77 4.31L1064.77 4.31Q1064.72 4.43 1064.65 5.09L1064.65 5.09L1064.65 5.09Q1064.65 5.11 1064.64 5.13L1064.64 5.13L1064.64 5.13Q1064.64 5.16 1064.63 5.21L1064.63 5.21L1064.63 5.21Q1064.62 5.26 1064.62 5.30L1064.62 5.30L1064.62 5.30Q1064.59 5.53 1064.59 5.58L1064.59 5.58L1064.03 5.55L1064.03 5.55Q1064.23 4.02 1064.25 3.08L1064.25 3.08L1071.88 3.08L1071.88 3.08Q1072.31 3.08 1072.31 3.21L1072.31 3.21L1072.31 3.21Q1072.31 3.24 1072.25 3.36L1072.25 3.36L1072.25 3.36Q1072.22 3.41 1072.14 3.55L1072.14 3.55L1072.14 3.55Q1072.11 3.60 1072.00 3.75L1072.00 3.75L1072.00 3.75Q1071.94 3.83 1071.89 3.90L1071.89 3.90L1071.82 3.97L1065.45 11.25L1070.99 11.25L1070.99 11.25Q1071.56 11.25 1071.62 11.17L1071.62 11.17L1071.62 11.17Q1071.73 11.03 1071.89 9.95L1071.89 9.95L1072.42 9.97L1072.42 9.97Q1072.42 10.01 1072.40 10.11L1072.40 10.11L1072.40 10.11Q1072.39 10.21 1072.37 10.40L1072.37 10.40L1072.37 10.40Q1072.35 10.60 1072.32 10.79L1072.32 10.79L1072.32 10.79Q1072.18 11.87 1072.14 12.41L1072.14 12.41L1064.18 12.41L1064.18 12.41Q1063.88 12.41 1063.88 12.13ZM1080.65 11.84L1080.65 11.84L1080.65 11.84Q1080.65 11.68 1080.93 11.45L1080.93 11.45L1080.93 11.45Q1081.21 11.21 1081.32 11.21L1081.32 11.21L1081.32 11.21Q1081.51 11.21 1081.75 11.49L1081.75 11.49L1081.75 11.49Q1081.98 11.76 1081.98 11.91L1081.98 11.91L1081.98 11.91Q1081.98 12.09 1081.71 12.32L1081.71 12.32L1081.71 12.32Q1081.43 12.56 1081.27 12.55L1081.27 12.55L1081.27 12.55Q1081.15 12.55 1080.90 12.29L1080.90 12.29L1080.90 12.29Q1080.65 12.02 1080.65 11.84Z"></path></g></svg>